<?xml version="1.0" standalone="no"?>
<!DOCTYPE svg PUBLIC "-//W3C//DTD SVG 20010904//EN"
 "http://www.w3.org/TR/2001/REC-SVG-20010904/DTD/svg10.dtd">
<svg version="1.0" xmlns="http://www.w3.org/2000/svg"
 width="2309.000000pt" height="1284.000000pt" viewBox="0 0 2309.000000 1284.000000"
 preserveAspectRatio="xMidYMid meet">

<g transform="translate(0.000000,1284.000000) scale(0.100000,-0.100000)"
fill="#2563eb" stroke="none">
<path d="M6415 12271 c-61 -11 -81 -26 -109 -86 -29 -59 -55 -80 -91 -71 -26
7 -134 -18 -177 -40 -14 -7 -43 -30 -64 -50 -51 -48 -57 -50 -141 -58 -40 -4
-101 -15 -137 -26 -57 -16 -69 -17 -105 -4 -62 21 -75 11 -65 -50 12 -79 10
-123 -9 -144 -9 -10 -49 -35 -89 -56 -127 -66 -167 -92 -201 -127 -53 -55
-128 -114 -182 -142 -42 -23 -62 -27 -133 -27 -46 0 -91 -4 -101 -10 -35 -18
-34 -94 2 -240 6 -25 10 -49 9 -53 -1 -5 3 -36 9 -69 9 -44 9 -62 0 -71 -6 -6
-11 -22 -11 -35 0 -53 -112 -262 -164 -307 -13 -11 -35 -45 -49 -76 -21 -49
-23 -59 -11 -80 26 -47 11 -177 -25 -210 -45 -42 -23 -111 81 -248 43 -57 48
-70 48 -115 0 -67 23 -196 49 -273 12 -35 21 -69 21 -77 0 -8 16 -46 35 -85
19 -38 35 -75 35 -81 0 -16 63 -103 117 -162 24 -26 43 -51 43 -56 0 -14 -30
-71 -41 -77 -5 -4 -9 -23 -9 -43 0 -31 8 -44 63 -98 37 -35 76 -64 93 -68 51
-11 92 -44 119 -93 14 -26 42 -73 61 -103 19 -30 34 -59 34 -65 0 -19 -74
-113 -103 -130 -16 -9 -37 -15 -47 -12 -29 7 -114 -13 -127 -31 -7 -9 -13 -33
-13 -54 0 -30 7 -46 28 -66 16 -15 35 -46 42 -70 17 -53 62 -94 94 -86 18 4
31 -3 57 -34 19 -22 60 -61 92 -87 38 -32 57 -55 57 -70 0 -29 -83 -99 -157
-131 -32 -14 -80 -36 -108 -49 -27 -14 -88 -36 -135 -49 -47 -13 -107 -34
-135 -46 -27 -12 -88 -35 -135 -52 -47 -16 -112 -45 -146 -63 -33 -19 -122
-54 -196 -79 -120 -39 -294 -116 -308 -135 -14 -19 -58 -41 -82 -41 -15 0 -54
-19 -91 -44 -35 -24 -100 -63 -143 -87 -83 -45 -238 -148 -312 -207 -47 -37
-143 -159 -164 -208 -14 -32 -59 -75 -148 -140 -30 -22 -73 -53 -95 -70 -35
-25 -49 -29 -110 -30 -139 -3 -373 -84 -506 -176 -15 -10 -94 -52 -175 -94
-199 -102 -251 -136 -271 -179 -9 -19 -23 -37 -32 -41 -25 -10 -150 -36 -211
-43 -63 -7 -148 -51 -255 -133 -72 -54 -91 -65 -205 -116 -65 -29 -176 -96
-280 -170 -30 -22 -80 -52 -110 -67 -108 -54 -141 -86 -192 -187 -26 -51 -54
-110 -62 -131 -11 -28 -25 -41 -53 -53 -60 -23 -67 -29 -85 -66 -9 -19 -23
-40 -32 -47 -12 -10 -16 -32 -16 -86 0 -46 -7 -93 -20 -130 -22 -64 -25 -109
-10 -128 6 -7 17 -21 24 -31 11 -17 14 -10 25 58 7 43 19 93 27 112 8 20 15
56 15 82 0 54 17 141 31 159 6 7 25 15 43 19 45 8 73 41 144 168 33 60 70 120
83 133 13 14 59 43 103 65 44 22 98 55 120 72 35 28 161 106 265 163 19 11 53
26 75 33 44 14 106 51 139 82 12 11 41 32 64 48 36 24 48 27 69 19 34 -13 90
7 126 45 15 15 27 31 27 35 0 7 132 71 147 71 4 0 33 16 62 36 79 51 280 150
322 158 21 3 42 13 49 21 7 8 19 15 27 15 8 0 27 8 41 19 83 57 338 171 385
171 6 0 18 7 26 15 9 8 34 17 56 20 35 6 41 4 50 -16 16 -35 29 -33 76 12 24
23 73 62 109 86 124 82 130 88 300 288 39 46 83 86 110 100 25 13 63 42 85 65
49 52 149 130 166 130 6 0 47 22 89 49 42 27 101 61 131 74 30 14 113 52 184
85 124 58 168 73 233 80 7 1 17 13 21 26 8 19 32 31 138 66 70 23 142 46 158
51 148 40 145 40 139 25 -3 -7 7 -18 21 -24 29 -13 33 -46 8 -61 -25 -13 -9
-25 16 -12 13 8 22 8 26 1 7 -12 25 -4 25 11 0 6 -4 8 -9 4 -6 -3 -15 4 -22
16 -10 20 -9 21 7 14 11 -4 24 -8 31 -8 7 0 10 -4 7 -9 -3 -5 -3 -20 0 -34 5
-19 13 -24 39 -24 37 0 51 -8 60 -32 8 -22 26 -23 33 -3 6 14 8 14 19 -1 9
-13 21 -15 58 -10 26 4 47 11 47 16 0 5 12 8 27 7 23 -2 29 4 39 33 10 30 9
39 -9 64 -24 34 -11 48 43 44 31 -2 35 0 33 20 -3 23 15 30 33 13 5 -6 14 -4
22 5 10 11 8 15 -13 20 -14 3 -22 10 -19 16 3 5 -2 15 -11 22 -13 9 -14 13 -4
14 41 5 59 9 65 15 4 3 18 -3 33 -14 23 -18 27 -19 37 -5 6 9 24 16 39 16 24
0 26 3 21 25 -4 14 -2 25 4 25 5 0 10 -4 10 -10 0 -24 28 -7 34 20 6 33 26 41
26 11 0 -10 7 -24 15 -31 8 -7 15 -10 15 -6 0 6 7 0 60 -47 28 -25 74 -107 59
-107 -5 0 -9 -5 -9 -10 0 -6 8 -5 20 2 16 10 23 9 45 -12 15 -14 25 -33 23
-45 -3 -24 10 -47 23 -40 5 4 9 -1 9 -9 0 -9 5 -16 10 -16 6 0 16 -12 23 -27
6 -16 20 -34 29 -41 10 -7 18 -21 18 -31 0 -23 37 -71 55 -71 7 0 32 -22 55
-50 22 -27 57 -59 77 -71 19 -12 48 -41 62 -65 35 -55 78 -108 119 -147 18
-18 56 -55 85 -83 60 -59 130 -114 145 -114 11 0 46 -49 47 -64 0 -5 28 -32
62 -60 34 -28 62 -56 62 -62 1 -6 13 -11 29 -11 18 0 42 -13 71 -39 74 -67 86
-84 97 -142 19 -93 66 -245 84 -272 10 -14 29 -47 44 -75 14 -27 30 -57 35
-65 6 -8 36 -62 67 -120 32 -58 85 -136 119 -175 33 -38 71 -86 85 -105 13
-19 33 -44 44 -56 12 -11 48 -49 81 -84 33 -35 76 -70 95 -78 33 -14 54 -27
123 -83 59 -47 125 -79 162 -79 25 0 38 -5 42 -17 4 -10 10 -20 13 -23 4 -3
17 -24 29 -48 l22 -43 -23 -32 c-22 -30 -23 -41 -23 -202 0 -149 2 -172 18
-187 9 -10 23 -18 31 -18 25 0 63 50 75 98 7 26 19 69 27 96 23 80 13 227 -18
250 -11 8 -12 19 -6 42 7 27 13 32 47 37 48 6 227 88 303 139 31 21 60 38 63
38 27 0 252 272 269 325 8 24 35 56 61 71 10 5 31 34 46 63 14 29 31 56 35 60
11 7 31 38 43 66 13 29 47 66 54 58 4 -3 10 8 13 26 4 18 13 35 20 38 8 3 14
11 14 19 0 8 5 14 10 14 6 0 10 5 10 10 0 6 9 21 20 33 12 12 16 23 11 25 -13
4 20 42 36 42 7 0 20 17 29 38 22 46 19 43 41 46 12 2 17 11 16 27 -1 13 1 18
3 12 3 -7 15 -13 27 -14 21 0 21 -1 3 -8 -19 -7 -19 -8 2 -13 27 -8 44 12 48
58 3 29 -1 37 -16 41 -27 7 -25 18 7 43 18 14 35 19 50 15 17 -4 23 -1 23 12
1 17 1 17 14 1 12 -16 13 -16 28 2 10 11 14 27 11 41 -5 18 -3 21 11 16 13 -5
15 -2 10 21 -8 33 -8 32 1 59 4 11 16 24 27 26 18 5 20 11 15 44 -8 49 1 86
20 79 9 -4 13 0 11 12 -1 9 1 23 6 30 14 24 13 86 -2 104 -10 13 -12 21 -4 30
16 21 20 104 4 100 -8 -1 -11 2 -7 8 3 5 13 10 21 10 8 0 14 5 14 10 0 6 -4
10 -10 10 -5 0 -10 13 -10 30 0 22 -4 28 -15 24 -13 -5 -14 -2 -5 21 14 37 13
55 -5 55 -19 0 -20 58 0 83 7 11 11 25 9 32 -3 7 2 20 12 29 19 20 32 13 16
-7 -7 -8 -9 -17 -5 -20 11 -12 23 -8 23 8 0 8 5 15 11 15 6 0 8 -9 4 -20 -4
-14 -2 -20 9 -20 10 0 13 6 10 15 -4 8 -1 15 5 15 6 0 11 9 11 20 0 11 4 20 8
20 5 0 7 -12 5 -28 -3 -19 2 -31 16 -39 13 -8 22 -9 26 -3 3 6 -1 10 -9 10 -9
0 -16 5 -16 11 0 6 6 9 14 6 7 -3 19 0 26 6 10 9 11 9 6 0 -4 -8 -2 -13 7 -13
8 0 13 10 13 23 -1 17 4 21 22 19 20 -3 23 0 20 24 -4 40 22 41 50 2 18 -27
22 -29 22 -13 1 20 1 20 16 0 15 -19 16 -18 10 15 -7 33 -6 34 9 16 8 -11 15
-27 15 -35 1 -12 5 -10 20 7 10 13 17 29 14 36 -3 8 -1 17 5 20 6 4 13 -9 17
-29 6 -34 14 -42 28 -28 4 4 17 8 28 8 12 0 23 5 25 11 2 7 -5 10 -20 7 -13
-3 -28 1 -34 9 -9 11 -1 12 43 10 50 -4 54 -6 48 -24 -5 -18 -3 -20 21 -15 21
3 34 -1 51 -20 13 -14 27 -22 33 -19 5 4 13 -4 17 -16 3 -13 15 -31 26 -41 15
-15 22 -16 33 -7 12 10 18 10 31 -1 13 -10 17 -10 25 2 8 12 10 12 19 -1 5 -8
10 -21 10 -28 0 -7 8 -12 18 -11 32 3 41 -1 36 -15 -4 -9 6 -16 29 -20 29 -5
34 -10 30 -26 -7 -25 22 -27 91 -6 41 12 48 12 62 -1 11 -12 12 -18 3 -29 -9
-11 -8 -14 4 -14 8 0 17 7 21 15 3 8 11 15 17 15 7 0 5 -9 -5 -25 -16 -24 -16
-25 8 -25 16 0 27 -7 31 -20 5 -16 15 -20 51 -20 34 0 44 -4 44 -16 0 -13 -3
-14 -14 -5 -19 16 -32 -5 -16 -24 7 -8 10 -21 7 -28 -4 -11 4 -13 31 -11 20 1
38 7 40 13 5 16 42 -6 42 -25 0 -14 2 -13 16 1 15 15 18 15 35 -1 11 -10 31
-18 44 -19 14 0 31 -10 39 -20 29 -42 53 -64 60 -57 4 4 14 -2 22 -13 10 -13
17 -16 22 -9 16 24 72 26 72 3 0 -4 -8 -5 -17 -2 -17 6 -17 6 -2 -9 10 -10 25
-15 38 -11 13 3 21 1 21 -7 0 -7 7 -10 15 -6 9 3 15 0 15 -9 0 -13 3 -13 21
-3 17 11 23 10 38 -8 l17 -21 20 24 19 23 20 -50 c13 -33 25 -50 37 -50 9 0
20 -4 23 -10 3 -5 1 -10 -5 -10 -6 0 -8 -4 -5 -10 3 -5 15 -10 26 -10 14 0 21
-9 26 -30 5 -30 22 -42 24 -17 0 6 5 -1 9 -17 5 -16 6 -34 3 -39 -4 -6 0 -8
10 -4 10 3 17 2 17 -3 0 -6 -4 -10 -8 -10 -4 0 -9 -16 -10 -36 -2 -22 1 -33 8
-29 5 3 7 0 4 -8 -3 -8 -1 -18 5 -22 6 -3 15 5 20 18 6 14 16 29 23 33 9 5 8
2 -2 -10 -13 -16 -12 -20 5 -32 10 -8 24 -14 29 -13 6 0 5 3 -1 6 -7 2 -13 12
-13 20 0 12 3 13 14 4 7 -6 22 -8 31 -4 12 4 16 3 12 -4 -4 -6 0 -16 7 -23 12
-9 19 -7 34 8 11 11 18 23 15 26 -4 3 3 6 15 6 25 0 28 -10 10 -28 -9 -9 -9
-15 -1 -23 15 -15 47 -3 37 13 -5 10 -4 10 5 2 10 -9 10 -17 2 -32 -16 -30
-14 -62 5 -62 8 0 13 -4 9 -9 -3 -5 -1 -12 4 -15 5 -3 12 5 15 19 10 39 24 29
22 -15 -2 -27 2 -40 11 -40 7 0 13 4 13 10 0 5 7 7 15 3 9 -3 15 -15 13 -26
-2 -11 3 -22 10 -24 7 -3 10 1 6 11 -4 12 0 16 15 16 30 0 26 -12 -14 -39 -19
-13 -35 -30 -35 -38 0 -8 -4 -11 -10 -8 -5 3 -10 -1 -10 -9 0 -9 -11 -18 -25
-22 -24 -6 -36 -34 -15 -34 6 0 10 -5 10 -10 0 -6 -12 -8 -27 -6 -20 4 -23 2
-15 -6 17 -17 15 -53 -3 -68 -11 -9 -12 -15 -2 -25 7 -7 16 -11 21 -8 4 3 2 9
-5 14 -7 4 -10 11 -6 15 3 4 13 1 22 -6 12 -10 21 -10 45 0 16 7 30 15 30 19
0 4 10 7 21 8 21 2 21 1 3 -12 -18 -13 -18 -14 -1 -20 9 -4 17 -13 17 -20 0
-7 12 -12 26 -12 15 0 29 -5 33 -10 3 -6 28 -10 55 -11 27 0 52 -6 56 -12 6
-9 9 -9 12 0 2 7 12 4 28 -10 14 -12 34 -26 46 -30 14 -6 24 -24 32 -59 6 -28
9 -56 7 -63 -3 -7 4 -19 16 -26 18 -12 23 -12 30 0 5 7 9 8 9 3 0 -6 -11 -27
-25 -47 -34 -50 -37 -80 -8 -83 32 -2 38 -12 14 -20 -12 -3 -19 -11 -16 -16 4
-5 1 -9 -6 -9 -7 0 -9 -11 -5 -35 9 -45 -2 -105 -19 -105 -14 0 -15 -17 -1
-39 7 -11 5 -13 -10 -8 -19 7 -19 7 0 -8 11 -8 17 -18 13 -21 -4 -4 -13 -2
-21 5 -11 9 -15 6 -19 -16 -3 -16 -5 -29 -4 -29 1 -1 13 -5 27 -8 18 -6 21 -5
10 3 -15 11 -8 27 8 17 16 -10 21 -56 6 -56 -18 0 -6 -28 14 -33 14 -4 14 -5
-2 -6 -35 -2 -63 -69 -36 -86 6 -4 1 -14 -12 -25 -13 -11 -18 -19 -13 -20 6 0
16 5 23 12 17 17 28 2 12 -17 -10 -12 -10 -15 4 -15 9 0 16 -4 16 -10 0 -5 -7
-7 -17 -3 -13 5 -15 2 -11 -15 3 -11 1 -23 -6 -26 -7 -3 -6 -8 4 -15 19 -13
33 -3 27 21 -5 16 -3 17 10 7 10 -9 13 -23 9 -41 -3 -15 -1 -28 4 -28 6 0 10
7 10 15 0 9 6 12 16 8 9 -3 12 -9 7 -12 -10 -8 -11 -44 0 -52 4 -3 -4 -18 -18
-33 -30 -33 -31 -36 -4 -33 12 1 24 -4 27 -12 3 -11 -2 -12 -24 -7 -28 7 -28
7 -10 -13 19 -21 19 -21 -8 -21 -16 0 -25 -4 -21 -10 4 -6 10 -8 14 -6 4 3 13
0 21 -5 13 -8 13 -10 0 -19 -12 -7 -12 -10 -1 -10 7 0 11 -6 8 -14 -3 -8 0
-19 7 -25 7 -6 11 -22 8 -36 -3 -20 -1 -24 12 -19 9 3 16 2 17 -2 0 -5 2 -18
4 -29 2 -10 -1 -25 -7 -32 -14 -17 2 -16 26 2 13 10 17 22 13 42 -4 15 -4 22
-1 16 3 -7 12 -13 20 -13 18 0 18 -30 -1 -66 -8 -16 -15 -37 -15 -46 0 -10 -4
-18 -10 -18 -5 0 -10 9 -10 20 0 11 -4 20 -10 20 -5 0 -10 -4 -10 -9 0 -5 -3
-18 -7 -28 -3 -10 -3 -15 2 -11 4 4 14 3 22 -3 15 -13 18 -83 3 -74 -5 3 -10
2 -10 -4 0 -5 6 -11 12 -13 8 -3 5 -9 -9 -16 -14 -8 -24 -9 -28 -2 -3 5 -1 10
4 10 12 0 15 42 5 53 -4 3 -16 1 -28 -5 -11 -7 -24 -11 -28 -10 -5 1 -8 -9 -8
-23 0 -14 -4 -25 -10 -25 -5 0 -10 8 -10 17 0 15 -2 15 -14 -2 -8 -11 -12 -25
-9 -31 2 -7 0 -15 -6 -19 -6 -3 -11 -18 -11 -33 0 -21 2 -24 10 -12 5 8 10 11
10 5 0 -5 5 -2 11 8 17 29 24 19 24 -36 0 -43 5 -59 28 -86 15 -18 27 -28 27
-22 0 6 5 11 10 11 6 0 10 -7 10 -15 0 -8 -4 -15 -9 -15 -5 0 -11 -17 -13 -39
-2 -28 0 -37 9 -34 14 6 18 -9 6 -21 -5 -4 -8 -13 -8 -19 0 -7 -13 -11 -30 -9
-37 3 -77 -17 -71 -35 3 -7 1 -15 -4 -18 -5 -3 -10 9 -12 27 -2 17 -9 33 -16
36 -10 3 -12 -5 -8 -29 19 -121 18 -130 -3 -136 -12 -3 -21 -9 -21 -13 0 -5
-3 -15 -6 -24 -5 -13 2 -16 32 -17 34 -2 35 -3 9 -6 -44 -7 -55 -23 -13 -20
19 2 40 -3 47 -10 10 -11 8 -13 -13 -7 -16 4 -26 2 -26 -5 0 -6 -15 -11 -32
-11 -25 0 -36 -6 -45 -25 -7 -15 -7 -27 -2 -31 6 -3 6 -10 1 -17 -12 -16 -22
-58 -12 -52 4 2 13 18 20 35 9 21 16 28 23 21 7 -7 5 -18 -7 -35 -19 -30 -20
-36 -3 -36 7 0 21 13 30 30 24 40 42 39 21 -2 -20 -39 -39 -59 -48 -51 -3 4
-18 8 -32 9 -21 2 -23 0 -13 -12 6 -8 9 -18 5 -21 -4 -4 -11 -1 -16 7 -7 11
-10 8 -10 -12 0 -20 4 -26 15 -22 8 4 15 2 15 -4 0 -5 -7 -15 -15 -22 -21 -18
-19 -39 8 -64 12 -11 22 -28 21 -36 0 -8 -2 -25 -2 -37 -2 -15 -7 -21 -17 -17
-8 4 -15 3 -15 -1 0 -13 29 -35 46 -35 14 0 15 -2 3 -17 -11 -13 -11 -17 -1
-20 22 -8 13 -53 -15 -80 -16 -15 -22 -23 -14 -18 9 5 12 4 10 -4 -3 -7 -9
-11 -14 -9 -5 2 -13 -15 -16 -37 -8 -47 -2 -62 7 -17 4 21 11 29 21 25 9 -4
14 0 12 8 -3 18 11 49 22 49 4 0 3 -14 -3 -30 -5 -17 -7 -42 -4 -55 4 -14 2
-25 -4 -25 -16 0 -12 -31 6 -44 13 -10 14 -20 3 -81 -7 -39 -15 -73 -19 -78
-3 -4 -25 -1 -47 7 -26 9 -63 13 -100 10 -32 -3 -83 -4 -114 -4 -46 0 -62 -4
-86 -24 -42 -35 -53 -85 -53 -232 0 -71 -4 -134 -8 -140 -14 -21 -193 -54
-292 -54 -65 0 -117 -6 -164 -20 -38 -11 -72 -17 -76 -15 -5 3 -5 20 -1 37 4
18 2 87 -5 153 -16 150 -17 255 -3 291 11 30 -1 247 -22 412 -8 63 -8 90 1
112 10 24 9 37 -6 77 -10 26 -24 52 -31 56 -7 4 -13 15 -13 24 0 9 -8 25 -17
35 -14 16 -15 21 -4 27 17 11 6 30 -23 41 -20 9 -20 9 -1 9 12 1 26 -4 33 -11
9 -9 12 -8 12 5 0 17 -41 34 -58 23 -6 -3 -13 1 -16 10 -3 9 -15 14 -28 12
-17 -2 -23 2 -23 17 0 11 -9 28 -20 38 -11 10 -20 22 -21 25 -7 41 -19 72 -29
76 -8 3 -11 13 -8 25 3 14 0 23 -11 27 -9 3 -16 14 -16 24 0 11 -5 22 -10 25
-6 4 -8 10 -5 15 7 11 -46 66 -73 74 -12 4 -22 12 -22 18 0 6 -9 -1 -21 -16
-11 -14 -26 -26 -33 -26 -12 0 -33 -32 -47 -75 -6 -17 -7 -17 -8 -2 -2 30 -31
20 -31 -11 0 -33 -32 -67 -55 -59 -8 4 -15 3 -15 -2 0 -4 -9 -19 -20 -32 -18
-20 -24 -22 -41 -10 -21 12 -43 6 -23 -7 6 -4 13 -15 17 -24 5 -14 1 -18 -18
-18 -14 0 -25 -4 -25 -10 0 -5 -7 -10 -15 -10 -8 0 -15 -5 -15 -11 0 -7 -14
-10 -35 -7 -19 2 -35 0 -35 -4 0 -4 5 -8 11 -8 8 0 7 -5 -2 -16 -12 -14 -14
-14 -26 2 -12 17 -13 17 -14 -2 -1 -10 0 -26 1 -33 1 -12 -1 -13 -14 -2 -8 7
-20 10 -27 6 -6 -4 -15 -1 -20 6 -4 7 -11 10 -16 6 -4 -4 -2 -17 5 -27 16 -26
15 -30 -3 -30 -9 0 -26 -10 -38 -23 -12 -13 -30 -26 -39 -30 -10 -4 -15 -12
-12 -21 9 -23 -29 -38 -52 -21 -24 18 -44 19 -44 1 0 -9 7 -12 20 -9 14 4 20
0 20 -11 0 -10 -9 -16 -25 -16 -18 0 -23 -4 -19 -15 4 -8 1 -15 -5 -15 -12 0
-23 -23 -35 -72 -4 -18 -2 -28 4 -28 6 0 8 5 4 11 -4 7 -1 10 7 7 15 -5 22
-65 8 -74 -5 -3 -9 1 -9 8 0 7 -5 20 -10 28 -9 13 -11 13 -20 0 -5 -8 -7 -23
-4 -32 3 -10 0 -18 -6 -18 -7 0 -10 -6 -7 -14 3 -8 -1 -17 -9 -20 -8 -3 -14
-12 -14 -20 0 -8 -6 -16 -12 -19 -10 -4 -10 -7 0 -18 17 -18 15 -26 -8 -32
-15 -4 -20 0 -20 14 0 10 -4 19 -10 19 -10 0 -13 -17 -10 -61 1 -26 -22 -45
-41 -33 -5 3 -12 -2 -15 -11 -4 -9 -21 -23 -38 -32 -30 -15 -30 -15 -16 2 14
17 13 18 -5 11 -41 -17 -67 -19 -77 -5 -7 11 -9 9 -7 -6 3 -37 -1 -44 -23 -47
-15 -2 -23 -10 -23 -23 -1 -11 -7 -19 -14 -17 -6 1 -22 -5 -34 -13 -21 -15
-21 -15 13 -9 30 6 33 5 19 -7 -8 -8 -23 -27 -33 -42 -12 -20 -23 -27 -37 -24
-21 6 -26 -12 -7 -31 7 -7 8 -12 2 -12 -6 0 -14 3 -18 7 -15 15 -49 9 -54 -9
-3 -15 -11 -18 -28 -14 -19 5 -28 0 -44 -26 -11 -18 -18 -43 -15 -55 2 -13 -1
-25 -6 -28 -5 -4 -9 -22 -9 -41 0 -46 -27 -71 -76 -70 -33 1 -39 -2 -36 -19 2
-14 0 -16 -6 -7 -7 10 -15 10 -37 2 -15 -6 -30 -8 -33 -5 -3 3 0 5 8 5 9 0 10
3 1 14 -12 14 -86 17 -107 4 -6 -4 -39 -6 -73 -5 -48 1 -60 5 -56 16 3 7 0 20
-6 27 -9 11 -15 12 -26 2 -11 -9 -16 -9 -23 2 -5 8 -6 19 -3 25 3 5 0 4 -8 -2
-18 -17 -29 -16 -29 2 0 8 -7 15 -15 15 -8 0 -15 5 -15 11 0 8 -4 8 -13 1 -7
-6 -24 -8 -37 -5 -17 5 -21 3 -15 -7 5 -8 3 -11 -6 -8 -8 3 -15 15 -17 27 -3
15 -8 21 -19 17 -20 -8 -39 4 -23 14 8 5 8 9 -3 13 -11 4 -15 0 -12 -13 5 -27
-6 -61 -17 -54 -6 4 -14 0 -19 -7 -12 -21 -22 -3 -10 19 9 17 8 19 -10 15 -15
-4 -22 0 -26 16 -7 28 -23 27 -24 -1 l0 -23 -9 23 c-5 12 -14 22 -20 22 -5 0
-10 10 -10 23 0 27 -10 41 -32 50 -13 4 -15 2 -11 -10 4 -11 3 -14 -6 -9 -14
9 -43 -23 -34 -38 4 -5 1 -6 -6 -2 -9 6 -9 11 -1 21 7 8 9 19 5 26 -4 6 -1 15
6 20 9 6 10 9 2 9 -6 0 -15 -5 -18 -10 -3 -6 -12 -10 -18 -10 -7 0 -6 4 3 11
11 8 12 12 3 16 -7 2 -13 13 -13 24 0 12 -9 21 -25 25 -14 3 -25 13 -25 21 0
12 3 13 14 4 15 -13 66 -5 66 10 0 5 -11 9 -24 9 -14 0 -28 5 -31 11 -4 6 -13
8 -21 5 -8 -3 -14 1 -14 9 0 8 -4 15 -9 15 -5 0 -7 10 -3 23 5 19 3 20 -10 9
-14 -11 -17 -10 -23 8 -3 11 -11 18 -16 15 -5 -4 -12 2 -15 12 -3 10 -10 26
-15 36 -6 11 -6 17 1 17 16 0 12 27 -5 34 -8 3 -15 12 -15 21 0 18 -36 20 -43
3 -2 -7 -2 8 0 34 6 51 -13 108 -36 108 -10 0 -11 -3 -2 -14 9 -11 9 -16 -1
-23 -30 -19 -39 -40 -28 -67 7 -20 6 -26 -4 -26 -9 0 -12 7 -9 20 7 27 -12 25
-31 -2 -14 -19 -16 -20 -16 -5 0 11 -6 17 -16 15 -10 -2 -19 3 -21 10 -3 6 -1
12 4 12 4 0 7 20 5 45 -3 35 -8 45 -22 45 -10 0 -20 6 -23 13 -4 10 -7 10 -18
0 -10 -10 -10 -13 0 -13 7 0 10 -7 7 -18 -4 -12 1 -26 14 -37 15 -14 17 -21 9
-32 -9 -10 -15 -10 -25 -2 -11 9 -15 7 -20 -5 -6 -15 -8 -15 -25 3 -13 13 -19
35 -19 65 0 56 -8 76 -26 69 -19 -7 -18 -29 2 -37 22 -8 13 -28 -15 -33 -29
-4 -52 13 -44 33 7 18 -5 18 -24 -1 -21 -22 -29 -10 -13 19 7 14 10 32 7 40
-4 9 -1 16 6 16 7 0 18 9 25 20 7 11 19 20 27 20 8 0 15 5 15 10 0 6 -11 10
-25 10 -14 0 -25 5 -25 10 0 6 -8 10 -17 10 -15 0 -15 1 1 13 12 9 32 11 55 8
46 -8 100 15 107 46 4 13 12 23 20 23 24 0 15 17 -12 23 -14 2 -31 -2 -39 -9
-21 -21 -25 -17 -18 16 7 39 -13 40 -29 3 l-12 -28 -3 26 c-4 24 -10 27 -54
33 -27 4 -49 11 -49 15 0 5 -10 7 -22 3 -18 -4 -20 -2 -16 16 4 16 2 19 -10
15 -12 -5 -14 -1 -10 15 8 28 1 28 -23 0 -17 -21 -18 -21 -19 -4 0 14 -3 16
-13 7 -9 -7 -24 -8 -47 -1 -19 5 -39 6 -48 1 -9 -5 -23 -5 -31 -1 -9 5 -25 12
-36 15 l-20 7 20 8 c16 6 11 9 -23 14 -23 5 -39 12 -36 18 3 5 -3 12 -15 15
-14 3 -21 13 -21 29 0 27 -41 44 -64 25 -10 -8 -21 -8 -40 -1 -36 13 -46 13
-46 -3 0 -7 -11 -21 -25 -31 -28 -21 -33 -46 -10 -46 24 0 18 -18 -15 -42 -28
-21 -66 -31 -83 -21 -4 2 -2 14 5 26 10 20 10 21 -5 8 -14 -11 -20 -11 -32 -1
-8 7 -37 13 -65 13 -31 1 -47 4 -41 10 5 5 7 16 4 23 -3 8 1 22 8 31 10 12 10
15 1 9 -19 -11 -54 3 -48 20 3 8 -1 14 -8 14 -8 0 -16 3 -19 8 -2 4 -2 1 -1
-5 2 -7 -3 -13 -10 -13 -26 0 -23 -25 3 -36 l26 -12 -25 1 c-25 2 -63 31 -52
41 3 3 -5 6 -17 6 -12 0 -20 4 -17 9 4 5 -8 13 -26 17 -28 6 -30 8 -13 14 17
6 13 9 -22 19 -32 9 -43 17 -43 31 0 24 -13 26 -30 5 -11 -13 -16 -13 -29 -2
-26 21 -70 41 -77 34 -4 -3 -15 4 -25 17 -15 19 -32 25 -84 31 -36 3 -63 11
-60 15 3 5 13 6 22 3 11 -4 14 -3 9 5 -10 16 -46 15 -46 0 0 -9 -4 -8 -10 2
-6 10 -10 11 -10 3 0 -7 -7 -13 -15 -13 -8 0 -14 6 -13 13 2 8 -12 12 -44 12
-25 0 -49 3 -53 7 -4 4 -13 4 -20 2 -7 -3 -15 -1 -18 3 -3 5 -21 8 -39 7 -37
-3 -241 32 -273 47 -11 4 -38 11 -60 14 -176 22 -299 55 -316 86 -6 11 -9 39
-7 62 3 36 1 42 -16 39 -14 -3 -17 1 -12 13 7 20 -3 65 -15 65 -5 0 -5 -7 -2
-17 4 -11 3 -14 -5 -9 -7 4 -12 14 -12 22 0 8 -5 14 -11 14 -6 0 -8 7 -5 15 3
9 0 18 -8 21 -7 3 -13 15 -12 27 2 26 -13 44 -40 49 -22 4 -26 -12 -26 -131
-1 -105 -14 -126 -70 -111 -36 10 -36 11 -26 48 5 20 11 46 12 57 1 11 5 27 8
35 8 19 16 87 24 207 5 71 3 97 -7 109 -7 9 -14 22 -15 29 -1 8 -11 23 -22 35
-10 11 -25 40 -33 63 -7 23 -16 44 -19 47 -4 3 -28 32 -55 65 -27 33 -61 72
-77 87 -15 14 -28 32 -28 38 0 12 -148 160 -160 160 -3 0 -20 14 -38 30 -18
17 -36 30 -40 30 -13 1 -99 85 -111 107 -7 14 -17 20 -26 17 -8 -4 -15 -1 -15
6 0 7 -6 10 -14 7 -18 -7 -40 18 -31 35 4 7 -1 4 -9 -6 -15 -19 -16 -18 -16
23 0 25 4 40 10 36 6 -3 10 -13 10 -21 0 -8 5 -14 10 -14 6 0 10 4 10 9 0 5 3
16 6 25 5 12 0 16 -19 16 -16 0 -27 6 -29 17 -2 12 -14 18 -36 19 -36 2 -40
-3 -14 -22 16 -12 15 -13 -5 -11 -13 1 -23 5 -23 10 0 5 -16 7 -36 4 -25 -4
-37 -2 -41 9 -6 17 -36 18 -63 2 -14 -9 -23 -10 -28 -3 -6 9 -26 11 -42 5 -3
-1 -15 -3 -28 -6 -20 -3 -22 0 -20 23 4 33 -24 43 -52 18 -14 -13 -19 -13 -23
-3 -3 10 -9 9 -24 -5 -24 -21 -37 -22 -53 -2 -11 13 -16 12 -44 -2 -38 -21
-76 -26 -93 -11 -19 15 -5 30 18 18 11 -6 19 -7 19 -2 0 16 -42 21 -56 7 -11
-10 -11 -14 -1 -18 6 -2 9 -8 5 -12 -4 -4 -20 2 -36 14 -36 25 -52 27 -52 4 0
-13 -3 -14 -12 -5 -7 7 -18 12 -26 12 -19 0 -45 -27 -32 -35 5 -3 10 -20 10
-36 0 -17 -4 -28 -9 -25 -5 3 -12 -1 -15 -10 -3 -8 -10 -13 -15 -9 -6 3 -8 12
-5 19 6 15 -23 42 -33 32 -4 -4 -2 -10 4 -14 21 -13 2 -50 -33 -67 -19 -9 -39
-13 -44 -10 -6 3 -10 2 -10 -4 0 -5 6 -11 13 -14 22 -8 1 -17 -41 -19 -23 -1
-48 -8 -54 -16 -7 -8 -22 -18 -35 -23 -13 -5 -23 -15 -23 -22 0 -8 -9 -22 -20
-32 -19 -17 -20 -17 -20 -1 0 13 -5 16 -22 11 -13 -4 -28 -13 -34 -21 -6 -7
-14 -10 -18 -6 -10 10 -67 11 -61 2 3 -5 1 -11 -5 -15 -6 -4 -7 -11 -4 -17 5
-8 1 -9 -10 -5 -10 4 -15 3 -11 -3 3 -6 3 -15 -1 -22 -5 -7 -12 -5 -22 8 -13
18 -14 17 -8 -10 6 -26 6 -27 -9 -12 -12 11 -21 13 -34 6 -10 -5 -26 -8 -37
-8 -30 2 -94 -22 -94 -36 0 -12 -42 -40 -64 -42 -6 0 -19 -2 -28 -2 -10 -1
-18 -6 -18 -12 0 -5 -12 -21 -26 -35 -24 -25 -54 -29 -81 -12 -6 4 -15 2 -19
-4 -5 -8 -8 -8 -14 0 -5 9 -14 8 -33 -2 -19 -10 -23 -17 -15 -25 8 -8 7 -13
-5 -18 -23 -9 -21 -24 3 -24 11 0 20 -4 20 -10 0 -13 -27 -13 -35 0 -4 6 -11
8 -16 4 -6 -3 -20 3 -32 13 -31 28 -54 34 -61 17 -3 -9 -10 -13 -15 -9 -6 3
-8 12 -4 20 3 8 0 15 -6 15 -6 0 -11 -5 -11 -11 0 -6 -12 -9 -28 -8 -15 2 -32
0 -39 -4 -6 -4 -14 -3 -18 3 -3 5 -15 10 -25 10 -10 0 -20 6 -23 13 -2 6 -8 9
-12 4 -5 -4 -3 -13 3 -19 20 -20 14 -28 -23 -28 -19 0 -35 5 -35 11 0 5 -4 8
-9 4 -12 -7 -102 14 -116 26 -14 13 -25 11 -25 -6 0 -8 -5 -15 -11 -15 -6 0
-9 7 -6 14 4 10 1 13 -9 9 -7 -3 -14 0 -14 6 0 6 -9 11 -19 11 -11 0 -23 5
-26 10 -3 6 -11 10 -17 10 -7 0 -6 -6 2 -15 10 -12 10 -15 0 -15 -6 0 -14 9
-17 20 -3 11 -12 20 -20 20 -12 0 -13 -3 -4 -14 7 -9 8 -17 3 -20 -6 -3 -12 1
-16 9 -6 17 -46 21 -46 4 0 -6 -14 -9 -33 -8 -17 2 -51 0 -75 -5 -37 -7 -42
-11 -36 -28 4 -15 2 -19 -7 -16 -8 3 -19 -2 -26 -11 -8 -12 -26 -15 -75 -13
-44 1 -59 -1 -48 -8 13 -8 13 -10 -2 -10 -9 0 -20 5 -23 10 -3 6 -20 10 -36
10 -17 0 -28 4 -25 8 7 12 -31 52 -50 52 -9 0 -37 19 -62 41 -26 23 -58 46
-72 52 -14 7 -32 20 -41 29 -9 10 -21 18 -27 18 -6 0 -16 9 -22 20 -6 11 -17
20 -25 20 -8 0 -15 5 -15 11 0 6 -8 8 -18 5 -13 -4 -28 5 -49 29 -20 23 -40
35 -57 35 -14 0 -29 7 -33 15 -12 20 -116 38 -171 30 -41 -6 -43 -8 -38 -32 6
-21 4 -24 -14 -18 -19 6 -30 -10 -11 -17 5 -1 11 -24 14 -51 7 -59 14 -72 32
-57 21 18 23 -29 3 -65 -20 -36 -21 -80 -1 -63 9 7 13 7 13 0 0 -6 -4 -14 -10
-17 -14 -9 -12 -42 3 -48 9 -4 9 -6 0 -6 -7 -1 -10 -8 -7 -16 4 -8 3 -36 -1
-61 -5 -35 -10 -44 -22 -40 -11 5 -13 2 -8 -11 4 -10 12 -44 18 -76 6 -33 15
-57 22 -57 8 0 11 -11 9 -30 -3 -27 -1 -30 25 -30 26 0 30 -4 36 -40 6 -37 24
-56 26 -27 1 14 27 -52 28 -71 1 -7 -4 -10 -10 -6 -7 4 -10 1 -7 -7 3 -8 12
-13 20 -13 9 1 14 -5 12 -15 -5 -20 4 -32 41 -53 18 -9 35 -30 41 -50 7 -18
18 -33 25 -33 18 0 29 -15 29 -40 0 -21 45 -49 62 -39 13 9 38 -16 38 -37 0
-14 9 -21 30 -26 17 -3 29 -8 26 -10 -9 -10 30 -39 47 -35 9 2 17 -1 17 -7 0
-6 -4 -11 -10 -11 -17 0 -11 -20 13 -43 22 -20 27 -54 6 -42 -5 4 -6 -1 -3 -9
7 -18 88 -16 122 3 27 15 52 8 52 -14 0 -8 4 -15 9 -15 4 0 8 -13 7 -30 0 -16
4 -29 9 -27 9 2 25 -47 28 -90 1 -12 8 -28 15 -35 11 -11 12 -9 7 7 -6 19 -6
19 8 2 9 -11 28 -21 44 -23 67 -8 94 -18 107 -36 8 -11 19 -17 24 -14 19 12
-12 -65 -35 -87 -12 -12 -23 -27 -23 -32 0 -14 -33 -41 -57 -49 -23 -7 -53
-66 -53 -105 0 -15 -9 -36 -20 -46 -44 -40 -63 -84 -58 -135 4 -43 1 -53 -23
-83 -37 -45 -50 -80 -43 -115 4 -19 -1 -40 -15 -64 -23 -38 -31 -99 -18 -135
12 -34 -12 -29 -55 12 -20 19 -41 35 -46 35 -15 0 -21 35 -10 54 13 24 -18 47
-53 40 -28 -5 -109 24 -109 39 0 5 -11 18 -24 28 -21 17 -24 26 -22 75 2 48
-1 58 -16 62 -13 3 -17 10 -13 23 4 11 2 19 -4 19 -6 0 -11 -4 -11 -10 0 -5
-4 -10 -10 -10 -5 0 -9 10 -7 21 1 12 -4 24 -12 27 -10 3 -11 -2 -6 -18 6 -19
4 -22 -9 -17 -9 4 -15 2 -13 -4 1 -6 -6 -16 -15 -22 -13 -9 -20 -8 -30 2 -7 8
-8 11 -2 8 8 -4 14 6 18 28 7 34 36 61 51 47 5 -4 0 5 -11 20 -10 14 -31 29
-47 32 -15 3 -27 12 -27 21 0 8 -4 15 -9 15 -5 0 -16 18 -25 40 -9 22 -23 40
-31 40 -10 0 -15 10 -15 26 0 19 -4 25 -15 20 -8 -3 -15 -1 -15 5 0 6 -7 8
-16 5 -13 -5 -15 -2 -11 14 4 17 1 20 -16 18 -18 -2 -23 3 -25 30 -3 34 -27
43 -51 20 -10 -11 -11 -10 -6 5 5 11 2 17 -8 17 -9 0 -18 8 -20 18 -3 12 -5
11 -6 -6 -1 -31 -21 -18 -21 14 0 14 -7 27 -15 30 -8 3 -17 15 -21 26 -4 14
-9 17 -16 10 -11 -11 -65 35 -60 51 1 4 -4 15 -13 23 -8 9 -15 21 -15 27 0 7
-14 18 -30 25 -19 9 -33 24 -37 40 -3 15 -17 45 -30 67 -46 78 -73 147 -67
170 3 13 1 26 -5 29 -6 4 -11 2 -11 -4 0 -7 -6 -10 -12 -7 -7 2 -13 15 -13 28
0 14 -5 23 -12 21 -8 -1 -13 9 -13 24 0 70 -78 307 -89 272 -2 -7 -7 -15 -10
-18 -15 -13 -31 -52 -31 -78 0 -52 22 -141 40 -160 12 -12 20 -44 25 -93 3
-41 15 -103 25 -139 10 -36 21 -77 24 -92 4 -18 13 -28 24 -28 15 0 15 2 2 10
-20 13 -4 13 19 0 15 -8 32 -52 30 -76 0 -4 3 -10 8 -13 5 -3 17 -26 28 -51
17 -38 85 -130 133 -179 8 -8 25 -32 38 -53 14 -21 36 -44 49 -50 32 -14 128
-156 188 -275 37 -74 43 -94 32 -103 -7 -6 -23 -36 -36 -68 -42 -106 -108
-230 -175 -329 -91 -132 -138 -243 -104 -243 6 0 10 -5 10 -11 0 -6 9 -22 20
-36 26 -33 25 -51 -5 -153 -45 -155 -65 -252 -55 -265 6 -7 4 -29 -5 -61 -17
-58 -85 -431 -85 -468 0 -15 9 -42 19 -62 l19 -35 11 53 c6 29 20 127 32 218
23 194 49 331 60 325 4 -3 10 9 14 27 4 18 18 69 31 113 13 44 30 116 39 160
27 146 98 364 180 560 26 61 51 132 57 159 10 53 40 120 58 131 24 15 57 -8
90 -61 29 -45 55 -69 145 -129 61 -40 135 -83 165 -95 84 -33 149 -78 156
-109 11 -46 76 -155 115 -191 44 -41 59 -84 37 -106 -13 -13 -21 -11 -64 22
-70 53 -134 56 -102 4 18 -29 158 -119 210 -135 24 -7 70 -13 101 -14 72 0
147 -37 182 -88 42 -62 30 -126 -25 -138 -16 -4 -39 -18 -50 -32 -24 -31 -38
-95 -21 -101 15 -5 14 -42 -5 -93 -29 -82 -58 -224 -59 -289 -1 -36 -5 -86 -9
-112 l-8 -48 45 0 c48 0 63 14 42 40 -7 8 -16 36 -20 61 -6 41 -4 46 17 56
l23 12 -23 0 c-34 1 -25 33 14 50 l31 13 -3 89 c-3 70 0 90 11 97 9 5 18 29
21 60 5 49 4 52 -20 58 -31 7 -35 24 -6 24 30 0 61 36 55 63 -3 13 3 35 15 55
35 58 68 36 77 -52 5 -50 9 -56 37 -67 17 -8 36 -17 41 -21 6 -5 19 -15 30
-23 27 -18 14 -28 -19 -15 -15 5 -42 10 -61 10 -33 0 -33 0 -30 -41 1 -24 9
-46 17 -50 8 -5 48 -9 89 -10 41 -1 82 -6 91 -11 10 -5 18 -5 18 -1 0 17 -64
160 -86 193 -13 19 -24 39 -24 45 0 6 -14 27 -31 48 -17 20 -57 77 -89 126
-32 49 -67 94 -77 100 -25 13 -111 177 -118 227 -5 33 4 150 20 254 2 14 7 45
10 70 7 48 85 212 140 295 52 77 164 185 215 207 88 39 278 88 312 81 59 -11
100 -34 142 -76 47 -47 74 -50 113 -10 14 13 32 22 40 19 8 -4 20 -3 26 1 7 5
21 8 32 9 72 5 126 5 250 0 77 -3 166 -6 197 -7 48 -1 60 -5 73 -25 8 -13 19
-23 23 -23 39 6 40 -8 8 -87 -13 -32 -29 -95 -36 -138 -9 -51 -20 -86 -32 -98
-23 -23 -79 -32 -90 -15 -4 7 -12 13 -18 13 -5 1 -15 2 -22 3 -6 0 -8 4 -5 8
4 3 -5 15 -20 25 -16 10 -28 23 -28 30 0 7 -8 12 -18 12 -9 -1 -17 3 -17 8 0
12 -26 38 -37 38 -12 0 -44 38 -62 72 -8 15 -31 34 -53 43 -36 14 -41 14 -66
-2 -34 -23 -58 -47 -64 -64 -3 -9 -6 -8 -11 4 -3 9 -2 17 3 17 6 0 10 4 10 9
0 5 -17 4 -40 -1 -35 -9 -40 -14 -40 -38 0 -16 -5 -30 -12 -32 -6 -2 11 -18
38 -35 72 -44 81 -56 89 -117 4 -39 11 -56 21 -56 9 0 14 -11 14 -29 0 -17 5
-33 10 -36 6 -3 10 -21 10 -40 0 -21 6 -35 16 -39 26 -10 8 -20 -54 -31 -55
-10 -56 -11 -60 -47 -2 -26 2 -41 16 -55 11 -10 23 -28 26 -40 4 -13 15 -23
24 -23 9 0 28 -17 41 -37 15 -24 26 -32 30 -24 5 7 12 11 17 10 5 -1 14 0 19
2 26 7 115 3 114 -6 -3 -30 3 -38 13 -15 l11 25 6 -30 c3 -16 10 -29 14 -27
17 5 21 1 7 -8 -20 -13 1 -13 34 0 14 5 26 6 26 2 0 -4 -14 -42 -30 -84 -35
-89 -38 -105 -39 -174 l-1 -52 -46 -4 c-45 -3 -68 7 -45 21 8 5 4 16 -14 35
-14 15 -25 31 -25 37 0 5 -7 12 -15 15 -8 4 -15 10 -15 15 0 4 -13 28 -30 52
-26 38 -33 44 -57 39 -46 -9 -104 -45 -121 -76 -10 -16 -25 -38 -34 -48 -10
-10 -18 -24 -18 -32 0 -24 29 -84 47 -98 31 -22 45 -46 37 -60 -5 -7 -9 -20
-9 -28 0 -9 -10 -15 -23 -15 -13 0 -30 -9 -37 -19 -8 -10 -19 -15 -25 -11 -6
4 -22 -1 -36 -10 -13 -9 -29 -13 -34 -10 -5 3 -14 -4 -20 -15 -6 -11 -18 -20
-26 -20 -8 0 -13 -4 -10 -8 6 -10 -37 -36 -62 -37 -80 -6 -86 -8 -97 -44 -6
-19 -4 -23 8 -18 11 4 14 2 10 -9 -3 -9 4 -29 16 -45 28 -38 44 -118 25 -126
-8 -3 -14 -13 -14 -23 0 -24 -20 -37 -30 -20 -6 9 -9 10 -15 0 -4 -7 -1 -16 6
-21 11 -7 9 -9 -8 -9 -12 0 -23 -5 -25 -11 -7 -21 -46 1 -69 39 -18 30 -23 33
-27 19 -2 -11 5 -25 17 -33 12 -9 21 -22 21 -30 0 -8 11 -24 25 -36 18 -15 25
-31 23 -48 -3 -21 2 -26 35 -34 20 -5 37 -15 37 -23 0 -7 -4 -13 -10 -13 -5 0
-10 -7 -10 -15 0 -8 17 -18 43 -25 23 -6 67 -20 97 -31 30 -11 91 -32 134 -45
44 -13 87 -31 96 -39 16 -14 77 -15 545 -11 317 4 533 2 544 -3 18 -10 27 14
82 233 11 44 23 85 28 90 4 6 13 36 19 66 9 50 27 95 100 250 14 30 35 82 46
114 20 57 46 86 46 52 0 -24 15 -19 28 8 8 19 19 25 44 25 18 0 68 4 110 10
43 5 115 6 160 3 46 -4 202 -5 348 -2 262 6 266 6 317 -17 l51 -24 36 25 36
24 558 4 c452 3 564 1 592 -10 27 -10 115 -13 386 -13 l350 -1 10 -31 c17 -58
62 -42 110 39 11 18 35 19 570 22 868 6 788 7 827 -17 19 -12 51 -21 73 -21
22 0 57 -5 79 -11 22 -6 177 -15 345 -21 352 -12 317 -11 572 -8 149 3 201 0
212 -9 16 -13 30 -12 139 9 32 7 59 11 60 9 1 -2 0 -116 -4 -254 -6 -243 -11
-302 -45 -583 -9 -73 -14 -135 -11 -138 12 -13 45 8 49 31 4 18 0 26 -13 30
-27 9 -24 33 5 41 21 5 24 13 30 68 3 34 4 76 0 92 -3 16 4 88 16 159 13 75
24 191 26 275 2 80 6 151 9 159 3 7 0 20 -6 27 -14 17 -4 77 14 93 7 6 52 15
100 20 48 6 108 20 135 31 26 12 67 28 91 35 29 9 58 29 82 55 40 44 73 51
114 24 26 -17 55 -8 85 28 13 16 24 18 88 12 80 -8 156 -45 238 -117 23 -20
59 -44 79 -53 60 -25 62 -70 8 -157 -41 -66 -58 -77 -113 -77 -89 0 -168 50
-201 128 -15 34 -17 48 -8 64 9 17 6 32 -16 79 -16 32 -34 60 -42 63 -20 8
-16 -11 13 -60 23 -38 25 -51 20 -104 -4 -36 -2 -60 4 -60 5 0 39 -36 76 -80
36 -44 76 -83 89 -86 52 -13 207 56 221 99 3 10 1 24 -5 31 -12 14 4 36 24 36
7 0 19 8 28 18 24 26 5 83 -45 138 -39 43 -89 67 -159 79 -41 6 -64 27 -55 50
4 12 29 15 143 15 156 0 177 7 205 61 16 32 24 37 66 43 78 10 96 0 137 -79
20 -38 44 -78 54 -89 15 -17 16 -17 21 20 6 48 18 52 162 53 l106 1 52 -58
c54 -59 78 -102 84 -150 1 -15 9 -37 16 -49 12 -19 12 -27 -4 -60 -25 -53 -73
-111 -107 -128 -36 -19 -70 -19 -117 1 -69 29 -114 85 -137 174 l-12 45 -16
-31 c-13 -25 -15 -42 -7 -85 12 -76 16 -83 67 -123 52 -40 98 -50 205 -44 62
3 73 7 87 28 9 14 30 41 47 60 26 29 29 38 20 53 -9 15 -7 21 13 36 l24 19
-23 73 c-12 41 -30 85 -40 99 -9 14 -26 46 -38 72 l-21 48 25 6 c13 3 35 3 49
0 14 -4 35 -1 47 5 14 7 72 11 161 10 157 -2 189 -12 245 -76 64 -73 66 -78
37 -121 -35 -52 -42 -84 -21 -99 20 -15 21 -31 0 -39 -14 -5 -14 -8 0 -28 9
-12 16 -32 16 -44 0 -30 70 -91 121 -104 33 -9 62 -9 123 1 78 12 83 14 131
64 68 70 100 136 99 201 -2 79 -14 95 -118 165 -54 36 -65 39 -126 39 l-68 0
-37 45 -37 46 43 -2 c60 -3 200 12 222 23 9 5 69 13 133 19 96 8 124 7 169 -6
67 -19 99 -19 129 0 13 9 31 12 41 9 24 -9 75 -121 75 -164 1 -72 64 -190 157
-292 24 -26 43 -52 43 -57 0 -6 14 -24 30 -41 34 -35 40 -82 14 -118 -8 -12
-17 -50 -20 -84 -2 -35 -9 -76 -14 -93 -5 -16 -16 -79 -25 -138 l-17 -108 26
-39 c42 -64 30 -180 -19 -180 -16 0 -26 -9 -35 -30 -17 -41 -70 -114 -123
-169 -24 -25 -73 -95 -109 -156 -95 -160 -164 -261 -182 -268 -32 -13 -130 15
-159 44 -35 34 -81 44 -133 30 -60 -17 -90 -13 -122 14 -20 17 -42 25 -68 25
-22 0 -59 5 -84 11 -25 6 -83 17 -129 24 -94 16 -108 23 -92 53 14 26 60 34
139 22 152 -23 345 -13 361 19 22 42 -46 281 -80 281 -5 0 -18 20 -28 43 -28
65 -57 74 -208 67 -118 -5 -123 -6 -152 -34 -36 -34 -39 -52 -11 -59 30 -8 24
-24 -11 -31 l-32 -6 8 -48 c19 -107 4 -164 -61 -232 l-33 -35 -123 7 c-307 18
-558 28 -613 26 -33 -2 -104 -2 -157 -2 l-97 2 20 -40 c18 -35 19 -45 9 -101
-14 -72 -30 -94 -77 -103 -27 -5 -39 -2 -55 13 -19 19 -19 22 -4 80 9 34 16
75 16 91 0 34 8 42 54 52 31 7 31 7 -20 22 -41 13 -72 14 -163 8 -116 -9 -140
-6 -154 17 -11 17 -48 17 -83 -2 -33 -17 -110 -20 -150 -5 -19 7 -37 7 -60 0
-24 -8 -44 -8 -75 0 -54 15 -150 80 -184 124 -28 37 -141 99 -212 116 -55 14
-83 38 -92 80 -9 43 -44 50 -49 10 -2 -14 -8 -29 -12 -34 -12 -12 -158 13
-163 28 -2 6 6 90 19 186 16 124 24 261 30 470 7 274 6 294 -9 281 -12 -10
-17 -30 -17 -75 -1 -38 -6 -68 -15 -80 -11 -14 -15 -47 -15 -116 0 -52 -7
-152 -16 -220 -11 -89 -14 -160 -9 -243 6 -104 4 -121 -11 -138 -36 -40 -49
-24 -45 53 4 61 -6 78 -39 72 -18 -4 -55 4 -107 24 -43 17 -107 40 -141 53
-65 23 -82 39 -64 62 12 14 186 13 282 -2 30 -5 58 -7 63 -4 4 2 7 19 7 37 l0
33 -117 -1 c-65 -1 -141 3 -170 7 l-52 8 -22 -43 c-12 -23 -38 -62 -57 -85
-29 -34 -43 -43 -69 -43 -17 0 -35 5 -39 12 -8 12 -15 126 -18 265 l-1 72 -74
7 c-41 4 -141 3 -223 0 -166 -8 -164 -7 -223 -95 -66 -98 -71 -101 -182 -102
-104 -1 -165 -10 -148 -21 14 -9 229 -13 242 -5 6 4 15 1 21 -6 19 -22 -13
-76 -55 -94 -51 -21 -171 -18 -260 7 -122 35 -184 24 -345 -60 -20 -11 -48
-20 -61 -20 -24 0 -57 -27 -57 -47 0 -6 7 -16 15 -23 23 -19 18 -47 -17 -102
-28 -43 -36 -49 -58 -43 -126 31 -170 36 -275 30 -60 -4 -178 -6 -262 -5 -93
1 -165 -2 -186 -9 -35 -12 -207 -15 -729 -13 -143 1 -280 -3 -310 -9 -29 -6
-120 -9 -203 -8 -233 3 -275 3 -510 -4 -121 -4 -277 -7 -347 -7 -107 0 -133
-3 -164 -19 -20 -11 -42 -17 -50 -14 -18 7 -18 42 1 81 18 34 17 153 0 158 -5
2 -18 -3 -28 -10 -25 -19 -42 -138 -24 -167 10 -18 9 -23 -13 -41 -29 -24 -99
-21 -129 6 -25 23 -52 20 -91 -9 -28 -21 -45 -25 -101 -25 -38 0 -80 5 -94 12
-20 9 -60 9 -175 -1 -169 -15 -272 -9 -299 18 -16 16 -28 17 -97 9 -43 -4
-272 -10 -509 -12 -236 -2 -447 -4 -469 -5 -44 -1 -43 15 -3 -144 14 -54 38
-119 53 -145 44 -75 163 -199 209 -218 170 -68 457 90 575 317 22 43 59 98 83
123 40 43 44 45 84 39 32 -4 43 -10 47 -28 10 -41 50 -48 238 -41 95 3 292 8
438 11 146 3 266 9 268 13 3 10 100 7 110 -2 8 -9 2 -260 -7 -266 -4 -3 -15
-36 -25 -75 -10 -38 -29 -101 -41 -140 -13 -38 -42 -144 -65 -235 -23 -91 -47
-170 -54 -177 -15 -16 -394 -33 -749 -33 -155 -1 -385 -5 -512 -11 -126 -5
-459 -12 -740 -14 -280 -3 -764 -8 -1075 -13 -311 -4 -714 -8 -897 -7 -183 0
-329 -3 -325 -6 32 -28 171 -29 3794 -28 3060 0 3685 3 3644 13 -38 11 -63 28
-115 80 l-66 66 1 78 c1 44 13 122 27 182 15 58 29 124 33 148 7 42 57 112 81
112 6 0 13 -43 17 -96 7 -96 21 -140 68 -206 18 -27 18 -27 -1 -38 -19 -9 -20
-17 -15 -76 4 -37 12 -78 20 -93 8 -14 14 -32 14 -39 0 -7 4 -11 8 -8 5 3 29
-13 53 -35 24 -22 51 -47 60 -55 9 -8 21 -14 27 -14 7 0 12 -4 12 -10 0 -7
866 -10 2577 -10 l2577 0 -27 28 c-65 68 -82 169 -37 217 19 20 20 26 10 46
-19 34 -7 115 21 146 13 14 56 41 96 59 92 43 217 164 299 289 34 52 101 132
159 190 142 142 140 136 141 385 1 158 5 220 18 270 16 61 16 70 0 155 -28
149 -33 162 -88 242 -86 127 -136 218 -156 282 -10 33 -40 95 -66 138 l-49 78
0 125 c0 102 -4 138 -22 196 -28 87 -70 147 -128 182 -24 14 -46 33 -48 42 -4
19 12 59 34 85 24 29 28 70 13 127 -22 84 -50 101 -184 113 -36 3 -81 7 -101
11 -20 3 -54 -1 -80 -10 -24 -8 -80 -24 -124 -35 -44 -11 -89 -23 -100 -26
-13 -3 -30 4 -47 19 -23 20 -28 36 -38 119 -8 60 -9 122 -5 164 9 72 9 629 1
798 -5 99 -27 230 -46 264 -11 21 -54 284 -76 461 -28 235 -55 363 -104 495
-11 28 -27 76 -36 107 -19 67 -64 123 -132 167 -27 17 -58 48 -71 71 -12 22
-26 40 -31 40 -4 0 -15 19 -25 43 -21 51 -88 147 -158 224 -91 100 -157 215
-157 273 0 20 -20 50 -75 111 -41 45 -75 86 -75 90 0 5 -30 29 -67 55 -38 26
-81 59 -98 74 -54 48 -123 90 -149 90 -14 0 -60 22 -103 50 -116 74 -123 79
-123 100 0 22 -71 74 -128 94 -21 8 -61 25 -89 39 -28 14 -80 33 -117 41 -67
16 -139 47 -151 66 -11 18 -76 40 -100 34 -13 -3 -64 6 -114 20 -49 14 -97 26
-107 26 -18 0 -157 44 -346 109 -64 23 -126 41 -138 41 -33 0 -230 59 -270 81
-19 10 -105 42 -190 70 -192 63 -268 94 -300 124 -14 12 -83 51 -155 86 -96
47 -142 76 -177 111 -26 26 -52 48 -59 48 -6 0 -27 14 -46 30 -18 17 -38 30
-43 30 -9 0 -85 113 -116 171 -33 65 -35 74 -60 329 -3 30 -16 79 -30 108 -13
29 -24 58 -24 65 0 7 27 41 60 75 33 35 60 71 60 81 0 10 14 33 30 51 17 18
30 36 30 40 0 3 5 43 10 89 8 59 8 87 0 95 -17 17 -11 73 15 138 19 46 25 80
25 133 0 40 6 90 14 112 10 28 11 54 5 93 -5 30 -11 82 -14 115 -15 155 -24
197 -51 224 -14 14 -46 56 -70 93 -24 38 -50 68 -59 68 -11 0 -12 5 -5 24 6
16 4 42 -5 77 -36 148 -55 194 -109 274 -31 45 -63 102 -71 126 -9 24 -29 71
-45 104 -16 35 -35 99 -44 153 -15 84 -55 189 -87 228 -5 6 -16 34 -24 62 -9
28 -35 77 -59 109 -25 34 -51 83 -60 117 -15 51 -29 70 -112 155 -169 172
-168 172 -287 223 -76 32 -126 48 -157 48 -83 1 -190 19 -228 39 -223 115
-344 160 -431 161 -18 0 -60 -12 -92 -26 l-58 -26 -28 32 c-15 19 -34 42 -41
52 -7 10 -35 30 -62 43 -46 23 -58 25 -197 24 -81 -1 -166 -5 -188 -8z m1025
-1544 c0 -18 4 -49 9 -69 5 -21 5 -38 1 -38 -12 0 -20 -83 -9 -96 5 -6 7 -19
3 -28 -3 -9 -1 -23 6 -31 11 -13 7 -15 -24 -15 -37 0 -49 -15 -18 -23 13 -4
11 -5 -5 -6 -14 -1 -23 -7 -23 -17 0 -10 -6 -14 -15 -10 -17 6 -22 -29 -5 -39
6 -3 10 -15 10 -27 0 -14 5 -18 15 -14 10 4 15 -1 15 -15 0 -11 -4 -17 -10
-14 -5 3 -10 -1 -10 -10 0 -12 6 -15 20 -10 29 9 26 -23 -2 -34 -20 -8 -21
-10 -6 -16 19 -8 20 -45 1 -45 -7 0 -13 -3 -13 -7 1 -15 60 -73 75 -73 8 0 15
-4 15 -9 0 -5 -11 -8 -25 -7 -14 0 -25 4 -25 9 0 4 -4 7 -10 7 -5 0 -10 -7
-10 -16 0 -10 -6 -14 -15 -11 -17 7 -30 -9 -15 -18 6 -4 8 -11 5 -16 -3 -5 1
-6 9 -3 11 4 16 0 16 -14 0 -12 5 -24 10 -27 6 -4 5 -12 -4 -21 -20 -20 -26
-18 -26 9 -1 20 -1 21 -11 4 -8 -14 -7 -21 6 -31 15 -11 15 -19 5 -74 -10 -49
-10 -65 0 -77 9 -11 17 -12 31 -4 16 8 19 6 19 -12 0 -16 5 -20 18 -17 11 3
30 -1 43 -8 27 -15 63 -19 55 -6 -8 13 31 7 48 -7 20 -17 21 -60 1 -67 -8 -4
-15 -13 -15 -21 0 -10 -6 -13 -16 -9 -8 3 -34 -4 -57 -17 -61 -34 -125 -55
-184 -63 -29 -4 -58 -13 -64 -20 -6 -8 -18 -14 -27 -14 -8 0 -32 -18 -53 -41
-20 -22 -43 -42 -51 -43 -16 -3 -73 -32 -108 -56 -50 -34 -155 -94 -211 -121
-31 -15 -69 -39 -84 -53 -15 -14 -35 -26 -45 -26 -9 0 -26 -11 -38 -25 -12
-14 -19 -25 -15 -25 3 0 -2 -10 -13 -22 -40 -45 -52 -74 -50 -119 3 -57 -27
-92 -98 -115 -28 -9 -58 -22 -66 -28 -27 -21 -65 -36 -87 -34 -12 1 -20 5 -18
8 8 12 -36 40 -70 46 -28 4 -35 2 -35 -12 0 -12 -3 -14 -13 -6 -7 6 -46 14
-87 17 -41 4 -93 8 -115 10 -22 2 -85 -5 -140 -15 -55 -11 -149 -28 -208 -40
-115 -22 -150 -35 -209 -83 -20 -16 -43 -27 -51 -24 -7 3 -24 34 -36 69 -12
34 -31 81 -41 103 -10 22 -26 58 -35 80 -25 59 -118 249 -125 255 -13 10 -97
236 -109 288 -6 29 -25 82 -41 116 -34 69 -43 145 -42 338 0 83 4 104 23 135
43 72 87 119 135 143 27 13 63 34 79 46 31 23 130 46 187 43 55 -2 183 11 186
20 5 13 87 -4 143 -31 61 -29 102 -41 93 -27 -3 5 2 9 12 9 13 0 15 7 12 32
-9 57 32 74 87 38 17 -11 42 -20 57 -20 22 0 31 9 53 55 15 30 34 55 41 55 8
0 14 6 14 13 0 20 38 38 93 44 29 3 66 14 82 24 20 11 49 17 85 17 34 0 69 6
88 16 18 9 37 14 43 11 5 -4 17 3 27 15 13 16 32 23 80 27 34 3 65 10 68 14 3
5 15 9 28 9 12 0 26 3 30 7 3 4 12 8 19 9 7 1 41 9 77 17 36 9 82 16 102 15
27 -1 44 5 62 21 23 22 66 34 116 33 86 -2 100 -5 126 -27 15 -13 31 -22 36
-19 4 3 8 -4 8 -14 0 -23 38 -36 57 -20 7 6 13 19 13 29 0 10 5 21 12 25 8 5
9 2 4 -12 -4 -10 -10 -32 -13 -49 -6 -27 -5 -29 10 -16 9 7 17 22 17 32 0 10
4 21 10 24 6 4 4 16 -6 31 -16 24 -16 24 12 22 15 -2 29 2 31 9 3 8 13 7 33
-4 24 -11 30 -21 30 -46z m1293 -553 c7 -7 -48 -111 -74 -139 -18 -19 -19 -19
-14 3 5 26 67 142 76 142 3 0 8 -3 12 -6z m-1293 -158 c0 -3 -4 -8 -10 -11 -5
-3 -10 -1 -10 4 0 6 5 11 10 11 6 0 10 -2 10 -4z m1290 -516 c0 -5 -4 -10 -10
-10 -5 0 -10 -7 -10 -15 0 -8 -4 -15 -10 -15 -11 0 -14 33 -3 43 10 11 33 8
33 -3z m166 -47 c-3 -10 -8 -30 -12 -45 -6 -26 -34 -40 -34 -18 0 6 5 10 10
10 6 0 10 6 8 13 -3 19 12 57 23 57 6 0 8 -8 5 -17z m-76 -143 c0 -5 -5 -10
-11 -10 -5 0 -7 5 -4 10 3 6 8 10 11 10 2 0 4 -4 4 -10z m-10 -67 c0 -7 -3
-13 -7 -13 -5 0 -9 -24 -9 -52 -1 -29 -5 -71 -10 -93 -8 -40 -8 -40 -13 -10
-5 25 -11 31 -39 33 -35 4 -41 21 -19 58 42 71 60 93 70 87 6 -4 8 2 4 18 -6
23 -5 23 8 5 8 -11 15 -26 15 -33z m-840 -123 c0 -5 -5 -10 -11 -10 -5 0 -7 5
-4 10 3 6 8 10 11 10 2 0 4 -4 4 -10z m26 -72 c4 -13 12 -26 18 -30 6 -4 8
-10 4 -13 -3 -4 -16 3 -29 16 -19 19 -21 20 -15 3 5 -10 10 -35 13 -55 4 -32
2 -37 -20 -42 -25 -7 -26 -7 -27 -82 -2 -88 2 -135 11 -129 15 9 10 -13 -6
-26 -8 -7 -22 -10 -30 -6 -8 3 -15 1 -15 -5 0 -5 7 -12 15 -15 12 -5 12 -10 3
-27 l-11 -21 -8 22 c-12 31 -23 28 -42 -12 -19 -42 -8 -56 47 -58 23 -1 36 -6
36 -15 0 -7 -7 -13 -15 -13 -8 0 -15 -5 -15 -11 0 -6 9 -9 19 -6 26 7 31 -11
16 -56 -11 -33 -11 -37 7 -43 14 -4 18 -12 14 -27 -3 -13 3 -28 17 -43 28 -28
47 -52 47 -58 0 -2 -7 -12 -16 -21 -13 -12 -14 -18 -4 -31 17 -20 4 -31 -20
-16 -24 15 -30 15 -30 2 0 -5 7 -10 15 -10 21 0 19 -20 -2 -21 -12 0 -13 -2
-5 -6 10 -4 10 -8 1 -20 -10 -12 -10 -16 2 -24 12 -7 7 -12 -11 -11 -3 0 -5
-26 -6 -59 0 -43 3 -59 13 -59 7 0 13 8 13 17 0 14 3 13 16 -6 12 -17 13 -26
5 -34 -15 -15 -14 -27 4 -27 10 0 15 -10 15 -26 0 -22 -2 -25 -15 -14 -8 7
-12 17 -8 22 3 6 0 9 -8 6 -8 -3 -14 -17 -14 -32 -1 -15 -6 -30 -11 -34 -6 -4
-19 -28 -29 -54 -10 -27 -21 -48 -24 -48 -3 0 -17 -18 -31 -40 -14 -22 -32
-40 -40 -40 -9 0 -35 -9 -58 -20 -22 -11 -46 -20 -52 -20 -5 0 -10 -4 -10 -10
0 -5 -14 -10 -30 -10 -17 0 -33 -6 -36 -14 -3 -8 -12 -12 -19 -10 -7 3 -16 1
-20 -5 -14 -23 -117 -9 -145 19 -10 10 -40 10 -40 0 0 -7 -5 -8 -12 -3 -13 8
-18 9 -40 12 -9 1 -8 4 2 11 12 7 12 12 3 21 -10 10 -10 16 1 28 28 32 41 179
19 215 -4 6 -8 17 -9 26 -16 112 -33 150 -84 192 -22 17 -40 37 -40 44 0 17
-14 25 -53 30 -18 2 -44 6 -59 10 -17 3 -28 1 -28 -5 0 -6 -7 -11 -15 -11 -8
0 -15 -4 -15 -10 0 -5 -5 -10 -11 -10 -8 0 -7 5 1 15 7 9 11 18 8 20 -9 9 -38
-7 -38 -20 0 -8 -5 -17 -12 -21 -7 -4 -8 -3 -4 5 4 6 2 19 -5 27 -11 14 -16
12 -42 -17 -25 -30 -30 -32 -38 -16 -6 9 -15 17 -21 17 -7 0 -6 -7 3 -17 27
-34 36 -58 32 -90 -3 -24 1 -35 19 -47 17 -12 18 -16 6 -16 -9 0 -19 -7 -22
-16 -3 -8 -2 -12 3 -9 5 3 17 -5 25 -17 9 -13 16 -17 16 -9 0 8 -8 20 -17 27
-16 12 -16 13 9 14 17 0 33 -8 42 -22 9 -12 16 -17 16 -10 0 6 7 12 15 12 20
0 36 -41 23 -57 -7 -9 -7 -13 1 -13 6 0 11 -4 11 -10 0 -5 -6 -10 -13 -10 -8
0 -13 -11 -13 -27 1 -17 -4 -27 -11 -26 -7 2 -24 -18 -38 -45 -28 -54 -59 -92
-74 -92 -6 0 -13 -11 -17 -25 -3 -14 -10 -25 -14 -25 -4 0 -10 -9 -13 -20 -9
-33 -72 -53 -172 -53 -102 -1 -199 23 -210 50 -12 31 -16 191 -5 198 13 8 13
170 0 215 -22 72 -32 127 -33 183 -2 45 -7 62 -22 73 -10 8 -22 11 -27 6 -14
-14 -21 -147 -8 -171 6 -13 14 -48 16 -79 3 -32 9 -74 15 -94 5 -20 9 -58 8
-85 -4 -190 5 -267 40 -309 15 -18 30 -22 112 -26 89 -3 98 -6 159 -43 48 -29
77 -40 109 -41 27 -1 49 -8 56 -17 13 -19 34 -23 59 -12 11 5 26 4 37 -3 12
-8 20 -8 24 -2 10 17 26 0 20 -21 -4 -11 -2 -19 5 -19 6 0 8 -4 5 -10 -3 -6 4
-10 17 -10 19 -1 17 -3 -12 -16 -19 -8 -38 -22 -43 -30 -5 -8 -23 -14 -47 -14
-30 0 -61 -13 -127 -52 -49 -29 -94 -59 -101 -68 -10 -11 -15 -12 -18 -3 -3 7
-15 24 -26 38 -23 30 -55 28 -87 -4 -10 -10 -39 -24 -65 -32 -50 -15 -73 -42
-85 -103 -4 -16 -14 -34 -24 -40 -14 -9 -24 -4 -56 29 -21 22 -60 58 -87 80
-105 88 -287 283 -317 340 -9 17 -34 50 -56 75 -23 25 -44 54 -47 64 -4 11
-17 31 -31 45 -13 14 -35 47 -48 73 -29 57 -22 67 62 78 59 7 127 32 138 50 3
5 29 21 57 35 51 26 59 32 133 102 87 82 141 171 175 285 30 103 37 189 19
235 -19 50 -29 122 -20 146 15 38 88 89 136 95 46 5 40 9 121 -79 26 -28 31
-44 12 -34 -7 4 2 -7 20 -24 17 -17 32 -33 32 -37 0 -11 98 -102 104 -97 3 4
6 1 6 -5 0 -7 -8 -12 -18 -12 -16 0 -68 -56 -65 -70 1 -3 -3 -13 -8 -22 -12
-23 2 -47 68 -115 78 -80 98 -70 87 43 -5 45 -11 64 -21 64 -10 0 -12 7 -7 26
4 16 3 25 -3 21 -19 -12 -32 8 -17 28 11 14 17 16 22 8 4 -7 16 -12 27 -12 55
1 85 -5 85 -16 0 -20 34 -23 202 -21 103 1 161 6 171 14 7 6 16 9 20 6 3 -3
16 2 30 11 14 8 47 18 73 21 27 3 72 16 100 30 28 13 56 24 62 24 7 0 12 7 12
15 0 9 12 18 30 22 18 3 30 12 31 22 1 13 2 13 6 -1 9 -35 29 -18 24 20 -1 6
5 12 14 12 9 0 13 5 9 11 -3 6 -3 14 2 18 14 9 57 79 88 141 15 30 31 62 36
70 18 34 33 76 31 89 -1 7 1 11 6 8 4 -3 7 19 6 49 -1 47 1 54 17 54 11 0 22
-10 26 -22z m-21 -138 c3 -5 1 -10 -4 -10 -6 0 -11 5 -11 10 0 6 2 10 4 10 3
0 8 -4 11 -10z m-75 -316 c0 -8 -5 -12 -10 -9 -6 4 -8 11 -5 16 9 14 15 11 15
-7z m40 -4 c0 -5 -7 -10 -16 -10 -8 0 -12 5 -9 10 3 6 10 10 16 10 5 0 9 -4 9
-10z m-810 -700 c0 -5 -4 -10 -10 -10 -5 0 -10 5 -10 10 0 6 5 10 10 10 6 0
10 -4 10 -10z m840 -87 c0 -9 -3 -13 -7 -10 -3 4 -13 1 -21 -6 -13 -10 -14 -9
-3 11 14 26 31 29 31 5z m1620 -449 c0 -8 -4 -12 -10 -9 -5 3 -10 10 -10 16 0
5 5 9 10 9 6 0 10 -7 10 -16z m-2213 -6 c18 -7 33 -15 33 -18 0 -3 -13 -14
-30 -23 -16 -10 -30 -22 -30 -28 0 -5 -7 -9 -15 -9 -8 0 -41 -18 -72 -40 -32
-22 -63 -40 -69 -40 -6 0 -24 -10 -39 -22 -24 -19 -39 -21 -122 -20 -52 1
-115 -3 -141 -8 -26 -4 -48 -7 -49 -6 -2 1 25 20 58 41 33 21 76 51 96 67 20
15 45 28 55 28 11 0 34 7 51 14 18 8 61 22 97 31 35 9 76 23 90 30 31 18 45
18 87 3z m73 -2 c0 -3 -4 -8 -10 -11 -5 -3 -10 -1 -10 4 0 6 5 11 10 11 6 0
10 -2 10 -4z m2077 -233 c-3 -3 -11 -2 -17 2 -9 6 -9 10 1 16 14 8 27 -7 16
-18z m-2095 -20 c4 -17 -58 -103 -73 -103 -4 0 -20 -5 -36 -11 -15 -7 -46 -14
-68 -16 -22 -2 -58 -12 -80 -23 -22 -10 -50 -21 -62 -24 -11 -4 -27 -13 -33
-21 -14 -17 -81 -20 -108 -6 -9 6 -34 13 -54 16 -21 3 -38 10 -38 16 0 5 -11
15 -26 21 l-25 12 23 13 c13 7 31 12 41 13 9 0 17 3 17 8 0 9 53 37 90 48 14
4 79 7 145 6 87 -1 124 3 135 12 8 8 30 17 48 21 18 4 45 13 60 21 35 18 40
18 44 -3z m3328 -28 c0 -8 -2 -15 -4 -15 -2 0 -6 7 -10 15 -3 8 -1 15 4 15 6
0 10 -7 10 -15z m-1256 -11 c4 -9 0 -24 -9 -34 -8 -9 -12 -19 -9 -22 3 -3 1
-9 -4 -12 -6 -4 -8 5 -6 21 3 16 6 36 7 46 2 22 13 22 21 1z m1392 -90 c-24
-17 -39 -18 -33 -1 2 6 12 11 21 10 12 -1 16 4 11 15 -5 14 -4 15 7 4 11 -11
10 -16 -6 -28z m-104 4 c-7 -7 -12 -8 -12 -2 0 14 12 26 19 19 2 -3 -1 -11 -7
-17z m198 -13 c0 -8 -4 -15 -10 -15 -5 0 -7 7 -4 15 4 8 8 15 10 15 2 0 4 -7
4 -15z m-46 -11 c3 -8 2 -12 -4 -9 -6 3 -10 10 -10 16 0 14 7 11 14 -7z m146
-83 c0 -11 -31 -24 -39 -16 -3 3 1 10 9 15 19 12 30 12 30 1z m-3249 -24 c-10
-9 -11 -8 -5 6 3 10 9 15 12 12 3 -3 0 -11 -7 -18z m-60 -30 c-16 -16 -25 -1
-10 16 8 8 16 11 18 5 2 -5 -2 -15 -8 -21z m59 -7 c13 -8 13 -10 -2 -10 -9 0
-20 5 -23 10 -8 13 5 13 25 0z m-505 -66 c7 -8 21 -14 30 -14 30 0 45 -25 35
-59 -19 -66 -77 -136 -104 -125 -8 3 -20 -3 -27 -13 -53 -71 -143 -44 -272 82
-55 54 -77 82 -77 100 0 14 5 25 10 25 6 0 9 -3 8 -7 -5 -13 6 -15 26 -7 11 4
21 3 23 -2 4 -11 79 -7 108 6 56 26 219 35 240 14z m-90 -517 c107 -33 174
-49 186 -42 5 4 9 0 9 -8 0 -16 57 -73 66 -65 8 9 54 -40 65 -69 9 -23 13 -25
54 -18 37 5 45 3 45 -9 0 -11 9 -16 26 -16 21 0 25 -4 21 -20 -3 -12 0 -20 8
-20 7 0 18 -7 25 -15 7 -8 18 -14 24 -14 16 3 50 -13 59 -27 5 -9 16 -10 37
-4 18 5 32 5 36 -1 4 -7 10 -6 18 0 13 11 96 12 96 2 0 -4 13 -6 30 -3 16 2
28 8 25 12 -7 12 40 32 79 33 35 1 48 11 25 19 -7 2 -6 8 4 16 13 11 18 8 35
-15 11 -15 21 -32 23 -38 5 -17 26 -34 34 -27 5 4 3 -2 -2 -12 -10 -17 -5 -23
36 -42 25 -13 46 -28 46 -35 0 -7 6 -14 13 -17 7 -2 10 2 7 10 -5 15 22 55 31
46 3 -4 1 -16 -6 -27 -9 -17 -8 -21 5 -21 8 0 15 3 14 8 -1 4 2 17 6 30 7 20
26 27 63 23 6 -1 12 5 12 14 0 8 5 14 12 12 6 -1 16 7 22 19 6 11 17 19 25 16
10 -3 12 0 8 12 -4 11 -1 16 10 16 9 0 21 8 28 17 11 14 16 15 28 5 12 -10 16
-10 21 0 5 10 7 10 12 1 9 -21 26 -15 19 7 -4 14 -2 20 8 20 8 0 17 -9 20 -20
8 -30 27 -24 27 8 0 36 10 46 24 27 10 -13 14 -13 39 -1 15 8 28 12 28 8 6
-37 2 -82 -10 -107 -19 -40 -87 -132 -128 -172 -18 -18 -30 -39 -27 -46 6 -17
-46 -89 -130 -179 -37 -40 -70 -77 -74 -81 -29 -33 -322 -187 -357 -187 -23 0
-209 92 -310 153 -77 47 -268 218 -296 266 -12 20 -34 50 -49 66 -31 35 -200
282 -200 293 0 4 -22 46 -48 92 -53 92 -71 142 -50 136 7 -2 49 -15 93 -29z
m4720 -35 c-7 -7 -25 17 -25 33 0 6 5 3 10 -5 8 -13 10 -12 11 5 1 17 2 16 6
-3 3 -13 2 -27 -2 -30z m-35 -36 c0 -8 -4 -18 -10 -21 -5 -3 -10 3 -10 14 0
12 5 21 10 21 6 0 10 -6 10 -14z m-47 -24 c-3 -12 -9 -22 -14 -22 -14 0 -11
38 4 43 16 6 17 5 10 -21z m84 -16 c-8 -8 -17 -12 -21 -9 -3 3 2 12 12 19 22
16 29 9 9 -10z m-52 -6 c3 -5 -1 -10 -10 -10 -9 0 -13 5 -10 10 3 6 8 10 10
10 2 0 7 -4 10 -10z m-61 -81 c-6 -11 -24 -2 -24 11 0 5 7 7 15 4 8 -4 12 -10
9 -15z m113 6 c0 -8 -4 -15 -9 -15 -10 0 -11 14 -1 23 9 10 10 9 10 -8z
m-3452 -126 c-4 -5 -12 -9 -18 -8 -9 0 -8 2 1 6 6 2 9 10 6 15 -4 7 -2 8 5 4
6 -4 9 -12 6 -17z m-4280 -229 c-3 -5 -10 -10 -16 -10 -5 0 -9 5 -9 10 0 6 7
10 16 10 8 0 12 -4 9 -10z m-140 -10 c-3 -5 -11 -10 -16 -10 -6 0 -7 5 -4 10
3 6 11 10 16 10 6 0 7 -4 4 -10z m8205 1 c0 -15 -28 -33 -40 -26 -8 5 -8 11 1
21 13 15 39 19 39 5z m-8462 -20 c3 -8 -1 -12 -9 -9 -7 2 -15 10 -17 17 -3 8
1 12 9 9 7 -2 15 -10 17 -17z m2 -30 c0 -19 -12 -41 -20 -36 -10 6 -1 45 11
45 5 0 9 -4 9 -9z m740 -34 c0 -26 -16 -54 -25 -45 -10 9 6 79 16 72 5 -3 9
-15 9 -27z m7730 -37 c0 -5 -4 -10 -10 -10 -5 0 -10 5 -10 10 0 6 5 10 10 10
6 0 10 -4 10 -10z m-8570 -20 c0 -11 -4 -20 -10 -20 -5 0 -10 9 -10 20 0 11 5
20 10 20 6 0 10 -9 10 -20z m-190 -96 c0 -8 -5 -12 -10 -9 -6 4 -8 11 -5 16 9
14 15 11 15 -7z m1215 -124 c121 -37 146 -51 152 -82 3 -17 17 -35 34 -45 15
-9 45 -39 66 -67 21 -28 70 -82 109 -121 62 -61 73 -76 78 -115 4 -25 19 -63
34 -85 23 -34 27 -53 30 -127 4 -78 1 -97 -28 -177 -32 -88 -33 -100 -14 -173
6 -26 4 -28 -22 -29 -16 0 -22 -3 -14 -6 8 -3 44 -18 81 -35 l65 -29 46 -97
c66 -138 126 -305 138 -387 10 -66 32 -477 34 -630 l1 -70 -35 3 c-19 2 -80
25 -135 51 -55 27 -113 49 -128 50 -16 0 -56 12 -90 25 -34 14 -93 37 -132 51
-69 26 -158 72 -192 99 -10 8 -74 56 -142 108 -68 51 -156 122 -195 159 -39
36 -105 90 -146 121 -66 49 -179 164 -169 172 6 4 232 123 309 163 36 18 83
47 105 64 22 16 74 47 115 67 l75 37 -42 3 c-31 2 -93 -14 -235 -62 -106 -35
-254 -79 -328 -97 -74 -18 -180 -51 -235 -75 -188 -79 -185 -79 -510 -79 -182
0 -320 5 -370 12 -44 7 -210 24 -370 38 -185 16 -317 32 -364 45 -76 20 -88
20 -239 -6 -33 -5 -33 -5 -27 29 6 30 4 36 -15 42 -19 6 -20 8 -6 23 13 15 12
26 -11 97 -14 44 -40 110 -59 147 -29 57 -35 80 -40 166 -6 91 -5 103 17 146
13 26 42 65 65 86 48 44 100 56 193 46 35 -4 69 -2 87 5 49 18 143 12 213 -16
83 -32 117 -32 235 -1 54 14 117 26 140 26 54 1 192 32 235 54 23 12 45 16 70
12 84 -15 84 -15 98 36 13 45 16 47 68 63 98 28 112 29 186 5 l71 -23 121 27
c262 58 304 69 375 99 66 27 76 35 94 75 43 89 205 176 281 150 26 -10 32 -9
41 7 29 49 46 58 105 52 31 -3 88 -15 126 -27z m-1570 -20 c-3 -5 -10 -10 -16
-10 -5 0 -9 5 -9 10 0 6 7 10 16 10 8 0 12 -4 9 -10z m4860 -71 c46 -20 47
-22 40 -56 -8 -43 -25 -83 -37 -83 -22 0 -74 119 -64 145 7 19 4 19 61 -6z
m4185 -34 c0 -14 -4 -25 -9 -25 -5 0 -11 11 -13 25 -4 17 -1 25 8 25 8 0 14
-11 14 -25z m-10010 -45 c0 -13 -11 -13 -30 0 -12 8 -11 10 8 10 12 0 22 -4
22 -10z m650 0 c0 -5 -4 -10 -10 -10 -5 0 -10 5 -10 10 0 6 5 10 10 10 6 0 10
-4 10 -10z m9400 -50 c0 -5 -5 -10 -11 -10 -5 0 -7 5 -4 10 3 6 8 10 11 10 2
0 4 -4 4 -10z m90 -281 c0 -4 -7 -9 -15 -13 -9 -3 -15 0 -15 8 0 7 7 13 15 13
8 0 15 -4 15 -8z m-50 -9 c0 -5 -4 -10 -10 -10 -5 0 -10 5 -10 10 0 6 5 10 10
10 6 0 10 -4 10 -10z m-20 -50 c0 -5 -2 -10 -4 -10 -3 0 -8 5 -11 10 -3 6 -1
10 4 10 6 0 11 -4 11 -10z m97 -222 c-3 -8 -6 -5 -6 6 -1 11 2 17 5 13 3 -3 4
-12 1 -19z m-1 -27 c-8 -12 -46 -21 -46 -11 0 5 10 11 23 13 12 2 23 5 25 6 2
0 1 -3 -2 -8z m-106 -251 c0 -5 -4 -10 -10 -10 -5 0 -10 5 -10 10 0 6 5 10 10
10 6 0 10 -4 10 -10z m-10015 -448 c-3 -3 -27 13 -53 35 -27 23 -59 43 -73 45
-16 2 -25 10 -27 27 -3 20 6 15 77 -40 45 -34 79 -65 76 -67z m5092 92 c-3 -3
-12 -4 -19 -1 -8 3 -5 6 6 6 11 1 17 -2 13 -5z m4883 -33 c0 -9 -41 -23 -48
-16 -2 2 -1 8 3 14 8 13 45 15 45 2z m-5300 -41 c0 -14 -9 -12 -26 4 -20 21
-17 28 6 16 11 -6 20 -15 20 -20z m64 -25 c-4 -8 -8 -15 -10 -15 -2 0 -4 7 -4
15 0 8 4 15 10 15 5 0 7 -7 4 -15z m5270 0 c3 -8 1 -15 -4 -15 -6 0 -10 7 -10
15 0 8 2 15 4 15 2 0 6 -7 10 -15z m-5304 -5 c0 -5 -5 -10 -11 -10 -5 0 -7 5
-4 10 3 6 8 10 11 10 2 0 4 -4 4 -10z m338 -15 c-3 -3 -9 2 -12 12 -6 14 -5
15 5 6 7 -7 10 -15 7 -18z m4823 -17 c11 -20 10 -21 -3 -10 -9 7 -23 10 -32 6
-9 -3 -16 -2 -16 4 0 10 15 19 32 21 4 1 13 -9 19 -21z m-1101 -48 c0 -5 -4
-10 -10 -10 -5 0 -10 5 -10 10 0 6 5 10 10 10 6 0 10 -4 10 -10z m-8655 -10
c3 -5 30 -10 59 -10 67 0 93 -22 59 -50 -12 -9 -40 -20 -63 -24 -103 -16 -295
-206 -379 -376 -55 -110 -109 -252 -120 -315 -12 -65 -36 -159 -46 -175 -3 -6
-15 -10 -25 -10 -29 0 -33 34 -27 224 4 129 11 186 25 231 11 33 18 74 15 90
-3 22 6 46 33 90 20 33 51 85 69 116 74 128 129 174 227 190 35 6 77 14 93 19
43 11 73 12 80 0z m5073 -30 c15 0 15 -2 2 -10 -18 -12 -60 -13 -60 -2 0 15
13 23 28 17 7 -3 21 -5 30 -5z m52 0 c0 -5 -4 -10 -10 -10 -5 0 -10 5 -10 10
0 6 5 10 10 10 6 0 10 -4 10 -10z m340 0 c0 -5 -5 -10 -11 -10 -5 0 -7 5 -4
10 3 6 8 10 11 10 2 0 4 -4 4 -10z m2390 0 c-20 -13 -33 -13 -25 0 3 6 14 10
23 10 15 0 15 -2 2 -10z m-50 -4 c0 -3 -4 -8 -10 -11 -5 -3 -10 -1 -10 4 0 6
5 11 10 11 6 0 10 -2 10 -4z m1897 -58 c-3 -8 -6 -5 -6 6 -1 11 2 17 5 13 3
-3 4 -12 1 -19z m33 -74 c0 -3 -6 -12 -14 -19 -17 -18 -29 -8 -13 11 12 14 27
18 27 8z m-10920 -34 c0 -5 -2 -10 -4 -10 -3 0 -8 5 -11 10 -3 6 -1 10 4 10 6
0 11 -4 11 -10z m10925 -70 c3 -5 1 -10 -4 -10 -6 0 -11 5 -11 10 0 6 2 10 4
10 3 0 8 -4 11 -10z m-8040 -61 c24 -12 48 -31 53 -43 16 -31 34 -158 25 -165
-5 -3 -13 -22 -19 -41 -12 -41 2 -90 25 -90 9 0 23 -5 31 -11 12 -8 9 -9 -10
-5 -14 3 -19 3 -12 0 7 -3 17 -15 23 -26 7 -12 7 -18 1 -14 -6 3 -10 -9 -10
-30 0 -28 5 -38 19 -41 14 -4 18 -11 14 -24 -5 -14 -1 -19 11 -19 16 0 16 -1
0 -19 -14 -15 -15 -24 -7 -40 23 -43 -22 -38 -75 8 -31 28 -33 32 -13 26 l24
-8 -25 26 c-14 15 -32 27 -40 27 -13 0 -13 -1 0 -10 8 -5 12 -12 9 -15 -10 -9
-39 6 -39 21 0 7 -6 11 -12 9 -8 -2 -23 16 -37 45 -13 27 -30 51 -37 54 -8 3
-11 15 -8 31 3 19 1 24 -7 19 -16 -10 -68 -13 -73 -5 -2 3 0 35 5 71 10 71 51
165 99 225 16 21 30 44 30 51 0 18 5 18 55 -7z m3760 -19 c3 -5 2 -10 -4 -10
-5 0 -13 5 -16 10 -3 6 -2 10 4 10 5 0 13 -4 16 -10z m-4059 -82 l71 -43 -13
-62 c-16 -81 -29 -103 -59 -103 -31 0 -94 55 -111 97 -19 45 -17 109 4 138 20
29 17 29 108 -27z m4121 10 c-3 -7 -5 -2 -5 12 0 14 2 19 5 13 2 -7 2 -19 0
-25z m1970 -50 c-3 -8 -6 -5 -6 6 -1 11 2 17 5 13 3 -3 4 -12 1 -19z m-6472
-46 c-3 -3 -11 0 -18 7 -9 10 -8 11 6 5 10 -3 15 -9 12 -12z m4975 -212 c0 -5
-5 -10 -11 -10 -5 0 -7 5 -4 10 3 6 8 10 11 10 2 0 4 -4 4 -10z m5293 -14 c74
-32 113 -102 123 -225 7 -87 -2 -115 -50 -146 -31 -21 -179 -30 -193 -13 -6 7
-13 90 -16 184 -7 200 -3 214 64 214 22 0 54 -6 72 -14z m-9287 -73 c7 -10 14
-26 14 -35 0 -10 3 -18 8 -18 4 0 18 -20 31 -45 17 -33 21 -49 13 -57 -12 -12
-94 -29 -102 -21 -3 2 -7 40 -8 83 -3 56 0 83 9 94 18 20 19 19 35 -1z m7741
-23 c-10 -15 -16 -18 -20 -8 -7 20 13 52 25 40 7 -7 6 -17 -5 -32z m-257 11
c30 -11 67 -17 82 -14 51 10 59 -54 29 -232 -13 -81 -28 -102 -59 -86 -13 7
-42 9 -76 5 -51 -6 -55 -5 -71 20 -20 30 -22 74 -11 204 8 85 21 122 45 122 3
0 31 -9 61 -19z m-3365 -1 c3 -5 1 -10 -4 -10 -6 0 -11 5 -11 10 0 6 2 10 4
10 3 0 8 -4 11 -10z m4264 -72 c6 -35 15 -101 20 -148 6 -47 13 -94 16 -106 8
-25 -10 -42 -53 -50 -49 -10 -59 17 -67 187 -7 146 -7 146 16 163 44 30 56 22
68 -46z m-652 0 c-3 -8 -6 -5 -6 6 -1 11 2 17 5 13 3 -3 4 -12 1 -19z m-3417
-23 c0 -8 -2 -15 -4 -15 -2 0 -6 7 -10 15 -3 8 -1 15 4 15 6 0 10 -7 10 -15z
m690 11 c0 -3 -4 -8 -10 -11 -5 -3 -10 -1 -10 4 0 6 5 11 10 11 6 0 10 -2 10
-4z m-590 -41 c-7 -8 -17 -12 -23 -8 -6 4 -3 9 9 14 27 11 28 11 14 -6z m-110
-4 c0 -6 -5 -13 -12 -17 -7 -5 -5 -11 7 -21 22 -16 -1 -19 -25 -3 -13 8 -13
11 -1 19 7 5 10 14 7 20 -4 6 0 11 8 11 9 0 16 -4 16 -9z m60 -27 c0 -2 -9 -4
-21 -4 -11 0 -18 4 -14 10 5 8 35 3 35 -6z m-5042 -36 c77 -25 86 -38 66 -109
-9 -30 -22 -79 -29 -110 -7 -31 -17 -72 -23 -90 -6 -19 -13 -60 -17 -91 -9
-77 -34 -108 -86 -108 -52 0 -100 21 -127 55 -44 56 -22 267 43 407 38 84 48
86 173 46z m4962 2 c0 -5 16 -10 35 -10 23 0 35 -5 35 -13 0 -22 -9 -25 -48
-16 -30 7 -39 5 -49 -8 -16 -21 -17 -2 -1 32 11 25 28 34 28 15z m92 -22 c-9
-9 -12 -7 -12 12 0 19 3 21 12 12 9 -9 9 -15 0 -24z m273 12 c-3 -5 -13 -10
-21 -10 -8 0 -12 5 -9 10 3 6 13 10 21 10 8 0 12 -4 9 -10z m776 -36 c30 -26
63 -56 74 -68 58 -63 72 -118 33 -131 -47 -15 -49 -14 -43 8 5 17 4 19 -4 7
-6 -8 -11 -18 -11 -22 0 -13 47 -58 53 -51 4 3 7 1 7 -6 0 -7 -14 -17 -31 -23
-22 -7 -30 -16 -28 -32 4 -62 0 -73 -33 -80 -17 -3 -47 -3 -65 0 -43 8 -41 33
5 54 31 15 36 35 6 23 -15 -6 -20 12 -5 21 4 3 6 17 3 31 -2 14 0 25 6 25 24
0 7 43 -20 52 -16 6 -28 14 -28 19 0 13 -67 80 -102 103 -34 22 -34 24 -5 59
21 26 82 56 118 57 8 0 40 -21 70 -46z m2334 -44 c-3 -5 -10 -10 -16 -10 -5 0
-9 5 -9 10 0 6 7 10 16 10 8 0 12 -4 9 -10z m-2598 -90 c68 -41 89 -124 46
-187 -13 -19 -21 -38 -18 -43 13 -22 -40 -28 -205 -24 -96 3 -181 7 -187 9
-18 6 -16 40 3 78 20 39 83 107 100 107 7 0 50 18 95 40 93 45 120 48 166 20z
m-5658 -40 c28 15 44 12 37 -5 -3 -9 1 -18 8 -21 19 -7 26 -40 13 -53 -14 -14
-27 -14 -27 -1 0 6 7 10 16 10 14 0 14 3 4 15 -15 18 -40 20 -40 3 0 -23 -39
27 -45 57 -5 27 -4 27 5 7 8 -19 13 -21 29 -12z m9088 -19 c34 -17 67 -40 73
-53 28 -53 48 -65 99 -60 56 5 99 -12 159 -64 35 -30 41 -41 47 -89 7 -49 5
-59 -18 -89 -15 -18 -47 -48 -73 -65 -41 -27 -56 -31 -114 -31 -64 0 -70 2
-110 38 -41 36 -43 40 -47 107 -4 57 -2 73 11 84 9 8 16 28 16 48 0 27 -9 43
-40 74 -22 22 -40 44 -40 48 0 5 -18 16 -39 24 -42 17 -56 31 -46 47 11 18 59
10 122 -19z m-9847 -181 c8 -5 12 -11 9 -14 -3 -3 -14 1 -25 9 -21 16 -8 20
16 5z m-45 -50 c3 -5 1 -10 -4 -10 -6 0 -11 5 -11 10 0 6 2 10 4 10 3 0 8 -4
11 -10z m315 -91 c0 -5 5 -7 10 -4 6 3 10 2 10 -4 0 -15 -23 -26 -28 -13 -2 7
-10 12 -18 12 -9 0 -12 5 -9 10 8 13 35 13 35 -1z m-17 -34 c21 -9 22 -31 3
-76 -8 -19 -16 -53 -19 -77 -5 -47 -27 -83 -27 -45 0 14 -8 23 -25 27 -14 4
-25 11 -25 16 0 6 -7 10 -15 10 -8 0 -15 5 -15 10 0 6 -12 10 -26 10 -19 0
-25 4 -20 15 4 10 -3 20 -19 27 -32 14 -32 32 0 46 13 6 30 21 37 32 11 17 21
20 73 17 33 -2 68 -8 78 -12z m167 5 c0 -5 9 -10 19 -10 11 0 23 -5 27 -11 3
-6 15 -9 25 -6 11 3 19 1 19 -4 0 -5 7 -9 15 -9 9 0 33 -12 55 -26 36 -24 46
-26 100 -21 58 6 60 6 77 -23 9 -17 21 -30 26 -30 4 0 5 5 2 10 -3 6 -1 10 4
10 15 0 14 -13 -1 -28 -7 -7 -14 -17 -14 -22 -1 -6 -2 -16 -3 -22 -3 -30 -21
-40 -70 -42 -28 -1 -53 -5 -56 -8 -3 -3 -21 -2 -40 2 -19 4 -37 5 -40 1 -4 -3
-6 -1 -4 4 5 19 -24 65 -41 65 -24 0 -42 -24 -34 -44 5 -13 -2 -16 -42 -16
-58 1 -89 19 -79 49 3 11 8 44 11 73 6 63 22 118 35 118 5 0 9 -4 9 -10z m115
-210 c3 -5 -3 -10 -15 -10 -12 0 -18 5 -15 10 3 6 10 10 15 10 5 0 12 -4 15
-10z m-268 -222 c-3 -7 -5 -2 -5 12 0 14 2 19 5 13 2 -7 2 -19 0 -25z m5813
-18 c0 -5 -5 -10 -11 -10 -5 0 -7 5 -4 10 3 6 8 10 11 10 2 0 4 -4 4 -10z
m-25 -41 c-4 -5 1 -12 9 -15 9 -3 13 -11 9 -17 -4 -6 0 -8 10 -4 12 4 17 -3
22 -34 5 -29 11 -39 21 -35 9 3 14 -2 14 -14 0 -11 -4 -20 -9 -20 -5 0 -13 -9
-16 -21 -5 -16 2 -29 30 -55 l37 -34 -12 -49 c-12 -52 -41 -93 -73 -105 -11
-3 -21 -15 -24 -26 -4 -15 -11 -19 -24 -15 -11 4 -19 3 -18 -2 5 -32 -44 -85
-61 -66 -4 4 -15 40 -23 78 -16 75 -15 210 3 291 12 52 54 132 78 150 18 13
36 8 27 -7z m-656 -284 c2 -2 0 -21 -4 -42 -11 -59 -13 -310 -3 -393 5 -41 15
-87 23 -101 8 -14 12 -34 10 -45 -2 -10 -7 -36 -10 -57 -5 -33 -9 -37 -27 -32
-17 6 -19 4 -13 -14 3 -12 3 -21 -2 -21 -4 0 -14 -13 -20 -28 -8 -17 -26 -33
-49 -41 -19 -7 -38 -19 -41 -27 -3 -8 -11 -14 -18 -14 -7 0 -15 -4 -17 -9 -2
-5 -28 -4 -61 2 -45 8 -61 16 -67 32 -5 12 -8 127 -9 256 0 245 6 293 42 303
15 4 18 10 12 36 -6 26 0 41 35 95 23 35 49 70 57 77 32 26 142 42 162 23z
m31 -45 c0 -5 -2 -10 -4 -10 -3 0 -8 5 -11 10 -3 6 -1 10 4 10 6 0 11 -4 11
-10z m360 -46 c0 -3 -7 -21 -16 -40 -9 -19 -14 -37 -11 -41 4 -3 2 -13 -3 -23
-6 -11 -4 -26 6 -45 8 -15 14 -44 14 -64 0 -20 0 -45 1 -56 0 -11 -2 -43 -6
-72 -6 -41 -4 -55 9 -68 11 -11 14 -25 9 -42 -3 -15 -6 -38 -7 -51 -1 -14 -10
-30 -21 -36 -11 -6 -30 -22 -43 -35 -19 -19 -23 -20 -20 -6 5 30 -17 27 -36
-6 -10 -16 -33 -38 -52 -46 -19 -9 -34 -20 -34 -25 0 -18 -50 -7 -64 14 -20
28 -20 51 -2 103 22 63 37 187 24 202 -7 9 -4 33 11 85 34 113 41 126 85 160
22 18 58 47 79 65 32 29 77 44 77 27z m4139 -53 c11 -11 33 -26 48 -35 66 -34
103 -103 103 -194 0 -81 -27 -102 -150 -119 -29 -4 -224 37 -236 50 -2 1 6 56
16 121 18 110 22 121 53 151 40 39 50 43 105 44 29 1 48 -5 61 -18z m-507
-443 c14 -11 15 -26 9 -95 -9 -89 -27 -129 -64 -138 -32 -8 -73 9 -92 39 -15
22 -15 35 -5 98 18 114 14 108 79 108 31 0 64 -6 73 -12z m-2982 -98 c0 -5 -7
-10 -15 -10 -8 0 -15 5 -15 10 0 6 7 10 15 10 8 0 15 -4 15 -10z m73 -17 c7
-7 -11 -33 -23 -33 -4 0 -10 9 -13 20 -4 14 0 20 12 20 10 0 21 -3 24 -7z
m-59 -18 c4 -10 -1 -15 -14 -15 -20 0 -26 11 -13 23 10 11 20 8 27 -8z m3771
-15 c23 -11 54 -33 70 -50 27 -28 27 -30 12 -53 -9 -14 -37 -35 -62 -47 -65
-31 -86 -87 -41 -108 27 -12 53 -79 43 -106 -9 -22 -50 -20 -97 4 -49 25 -51
29 -60 114 -5 39 -14 104 -21 145 -13 69 -12 74 6 87 10 8 31 14 47 14 15 0
28 5 28 10 0 16 30 12 75 -10z m-1765 -110 c6 -12 10 -38 8 -58 -3 -36 -4 -37
-45 -40 -34 -3 -44 1 -53 18 -14 26 -5 70 14 70 7 0 19 7 26 15 17 21 37 19
50 -5z m841 -72 c46 -50 60 -73 53 -92 -7 -18 -47 -32 -79 -27 -51 8 -81 80
-51 126 22 33 41 31 77 -7z"/>
<path d="M6955 10710 c3 -5 8 -10 11 -10 2 0 4 5 4 10 0 6 -5 10 -11 10 -5 0
-7 -4 -4 -10z"/>
<path d="M7270 10616 c0 -9 7 -16 16 -16 9 0 14 5 12 12 -6 18 -28 21 -28 4z"/>
<path d="M7250 10585 c0 -8 5 -15 10 -15 6 0 10 7 10 15 0 8 -4 15 -10 15 -5
0 -10 -7 -10 -15z"/>
<path d="M7280 10575 c0 -8 5 -15 10 -15 6 0 10 7 10 15 0 8 -4 15 -10 15 -5
0 -10 -7 -10 -15z"/>
<path d="M7310 10490 c0 -5 7 -10 15 -10 8 0 15 5 15 10 0 6 -7 10 -15 10 -8
0 -15 -4 -15 -10z"/>
<path d="M7331 10434 c-12 -15 -21 -34 -20 -43 0 -11 3 -10 9 5 4 12 21 31 37
42 20 16 23 21 11 22 -9 0 -26 -12 -37 -26z"/>
<path d="M7340 10340 c0 -5 5 -10 10 -10 6 0 10 5 10 10 0 6 -4 10 -10 10 -5
0 -10 -4 -10 -10z"/>
<path d="M7345 10130 c3 -5 8 -10 11 -10 2 0 4 5 4 10 0 6 -5 10 -11 10 -5 0
-7 -4 -4 -10z"/>
<path d="M6985 8240 c3 -5 8 -10 11 -10 2 0 4 5 4 10 0 6 -5 10 -11 10 -5 0
-7 -4 -4 -10z"/>
<path d="M6940 8115 c0 -8 4 -15 10 -15 5 0 7 7 4 15 -4 8 -8 15 -10 15 -2 0
-4 -7 -4 -15z"/>
<path d="M7050 7405 c0 -8 5 -15 10 -15 6 0 10 7 10 15 0 8 -4 15 -10 15 -5 0
-10 -7 -10 -15z"/>
<path d="M7010 7390 c0 -5 5 -10 11 -10 5 0 7 5 4 10 -3 6 -8 10 -11 10 -2 0
-4 -4 -4 -10z"/>
<path d="M6950 7345 c0 -8 2 -15 4 -15 2 0 6 7 10 15 3 8 1 15 -4 15 -6 0 -10
-7 -10 -15z"/>
<path d="M8665 5930 c3 -5 8 -10 11 -10 2 0 4 5 4 10 0 6 -5 10 -11 10 -5 0
-7 -4 -4 -10z"/>
<path d="M8275 5820 c3 -5 10 -10 16 -10 5 0 9 5 9 10 0 6 -7 10 -16 10 -8 0
-12 -4 -9 -10z"/>
<path d="M8305 5791 c-6 -11 9 -23 19 -14 9 9 7 23 -3 23 -6 0 -12 -4 -16 -9z"/>
<path d="M4955 4260 c-25 -11 1 -11 35 0 20 6 21 8 5 8 -11 0 -29 -3 -40 -8z"/>
<path d="M4170 2806 c0 -2 8 -10 18 -17 15 -13 16 -12 3 4 -13 16 -21 21 -21
13z"/>
<path d="M9831 2443 c4 -21 -2 -33 -16 -33 -18 0 -18 -1 -2 -31 6 -13 22 -25
35 -27 21 -3 22 -1 12 18 -6 12 -10 33 -8 47 2 15 -3 28 -10 31 -7 2 -12 0
-11 -5z"/>
<path d="M13142 2188 c-7 -7 -12 -19 -12 -28 0 -24 64 -82 82 -75 20 8 33 95
16 107 -20 12 -72 10 -86 -4z"/>
<path d="M3525 1870 c3 -5 10 -10 16 -10 5 0 9 5 9 10 0 6 -7 10 -16 10 -8 0
-12 -4 -9 -10z"/>
<path d="M12982 1018 c-7 -7 -12 -17 -12 -24 0 -7 -5 -14 -11 -16 -17 -6 2
-38 32 -53 37 -20 94 -19 113 1 9 8 16 18 16 20 0 17 -24 45 -54 63 -38 24
-66 27 -84 9z"/>
<path d="M5727 7549 c-9 -5 -22 -7 -27 -4 -6 3 -10 -1 -10 -9 0 -22 -17 -29
-40 -16 -16 8 -18 8 -14 -4 4 -11 0 -13 -14 -9 -12 3 -27 -4 -41 -18 -19 -21
-21 -31 -16 -104 4 -55 2 -75 -5 -65 -8 13 -10 13 -10 -2 0 -9 5 -18 11 -20 5
-2 12 -16 13 -31 5 -40 12 -43 51 -22 32 18 65 14 36 -4 -9 -6 -7 -10 9 -14
26 -7 52 1 44 14 -3 5 3 9 13 9 10 0 28 3 41 6 16 5 22 2 22 -9 0 -9 12 -16
35 -19 23 -3 31 -1 25 7 -5 6 -5 27 0 48 4 20 6 37 3 37 -3 0 0 6 6 14 8 9 8
16 2 20 -5 4 -9 24 -8 46 2 33 -1 40 -15 40 -11 0 -18 7 -18 20 0 10 -9 28
-21 38 -18 17 -18 21 -5 35 14 13 13 15 -7 21 -30 8 -39 7 -60 -5z"/>
<path d="M5365 7520 c-3 -6 1 -7 9 -4 18 7 21 14 7 14 -6 0 -13 -4 -16 -10z"/>
<path d="M4985 7461 c-3 -5 -1 -12 5 -16 5 -3 10 1 10 9 0 18 -6 21 -15 7z"/>
<path d="M5065 7430 c4 -6 11 -8 16 -5 14 9 11 15 -7 15 -8 0 -12 -5 -9 -10z"/>
<path d="M5460 7270 c0 -5 5 -10 10 -10 6 0 10 5 10 10 0 6 -4 10 -10 10 -5 0
-10 -4 -10 -10z"/>
<path d="M9550 7246 c0 -2 7 -9 15 -16 13 -11 14 -10 9 4 -5 14 -24 23 -24 12z"/>
<path d="M10200 7200 c0 -5 5 -10 11 -10 5 0 7 5 4 10 -3 6 -8 10 -11 10 -2 0
-4 -4 -4 -10z"/>
<path d="M5804 7184 c13 -9 24 -10 37 -3 27 14 24 17 -18 17 -34 0 -36 -1 -19
-14z"/>
<path d="M5768 7143 c7 -3 16 -2 19 1 4 3 -2 6 -13 5 -11 0 -14 -3 -6 -6z"/>
<path d="M9585 7120 c3 -5 8 -10 11 -10 2 0 4 5 4 10 0 6 -5 10 -11 10 -5 0
-7 -4 -4 -10z"/>
<path d="M5778 7093 c7 -3 16 -2 19 1 4 3 -2 6 -13 5 -11 0 -14 -3 -6 -6z"/>
<path d="M9630 7089 c0 -5 5 -7 10 -4 6 3 10 8 10 11 0 2 -4 4 -10 4 -5 0 -10
-5 -10 -11z"/>
<path d="M9587 7051 c-3 -12 -1 -21 3 -21 14 0 19 15 11 29 -6 9 -10 7 -14 -8z"/>
<path d="M10650 6999 c0 -6 7 -9 15 -5 8 3 15 1 15 -4 0 -6 4 -10 10 -10 5 0
7 7 4 15 -7 17 -44 21 -44 4z"/>
<path d="M11346 6743 c-11 -11 -6 -23 9 -23 8 0 15 4 15 9 0 13 -16 22 -24 14z"/>
<path d="M11400 6649 c0 -5 5 -7 10 -4 6 3 10 8 10 11 0 2 -4 4 -10 4 -5 0
-10 -5 -10 -11z"/>
<path d="M9585 6600 c-4 -6 -13 -9 -21 -6 -7 3 -16 1 -19 -4 -8 -12 44 -25 55
-14 5 5 5 15 1 23 -6 10 -10 10 -16 1z"/>
<path d="M9510 6559 c0 -5 5 -7 10 -4 6 3 10 8 10 11 0 2 -4 4 -10 4 -5 0 -10
-5 -10 -11z"/>
<path d="M11483 6512 c-6 -4 -13 -18 -16 -32 -2 -14 -2 -19 0 -12 6 17 23 15
23 -3 0 -8 5 -15 10 -15 13 0 13 17 -1 26 -6 3 -9 15 -6 25 6 22 6 21 -10 11z"/>
<path d="M11400 6445 c-7 -8 -16 -12 -21 -9 -5 3 -6 -1 -3 -9 6 -17 54 -41 54
-27 0 5 -5 12 -11 16 -8 5 -6 10 5 16 9 5 16 13 16 18 0 15 -26 12 -40 -5z"/>
<path d="M11376 6363 c-6 -14 -5 -15 5 -6 7 7 10 15 7 18 -3 3 -9 -2 -12 -12z"/>
<path d="M10377 6343 c-12 -12 -7 -22 8 -17 8 4 15 10 15 15 0 11 -14 12 -23
2z"/>
<path d="M10285 6320 c-3 -5 -1 -10 4 -10 6 0 11 5 11 10 0 6 -2 10 -4 10 -3
0 -8 -4 -11 -10z"/>
<path d="M10330 6318 c0 -9 5 -20 10 -23 13 -8 13 5 0 25 -8 13 -10 13 -10 -2z"/>
<path d="M11370 6314 c0 -8 5 -12 10 -9 6 3 10 10 10 16 0 5 -4 9 -10 9 -5 0
-10 -7 -10 -16z"/>
<path d="M10245 6310 c-4 -6 -28 -11 -59 -10 -73 2 -74 2 -81 -21 -5 -13 -12
-18 -22 -14 -9 3 -26 -4 -39 -16 -15 -14 -30 -20 -45 -16 -23 6 -62 -9 -56
-21 2 -4 -5 -15 -15 -25 -19 -18 -20 -18 -25 2 -7 29 -17 26 -30 -9 -8 -22
-18 -30 -37 -30 -13 0 -28 -4 -31 -10 -9 -15 -25 -12 -25 5 0 8 7 15 16 15 9
0 12 5 8 12 -5 8 -16 1 -33 -20 -31 -36 -84 -62 -74 -35 5 13 3 13 -20 -2 -14
-9 -30 -14 -35 -11 -5 3 -25 -2 -43 -11 -18 -9 -28 -18 -21 -21 7 -2 12 -8 12
-13 0 -4 -7 -6 -15 -3 -14 6 -20 -6 -16 -29 1 -5 -8 -6 -19 -2 -15 5 -22 1
-29 -17 -5 -15 -5 -26 3 -30 18 -12 46 -9 46 5 0 6 10 23 21 37 l20 25 -4 -33
c-3 -28 0 -35 20 -43 30 -11 33 -11 33 1 0 6 -8 10 -17 10 -15 0 -16 2 -3 10
8 5 32 7 53 3 25 -4 37 -2 37 6 0 8 8 10 20 6 12 -4 20 -2 20 5 0 7 12 9 35 4
22 -4 41 -2 49 5 8 7 33 13 55 14 23 1 41 4 41 7 0 8 90 44 103 42 14 -3 80
28 101 48 12 10 40 38 63 61 28 28 46 40 58 36 9 -4 13 -3 10 3 -3 5 0 18 7
29 11 18 10 24 -8 42 -15 15 -24 18 -29 9z m-619 -246 c-4 -9 -9 -15 -11 -12
-3 3 -3 13 1 22 4 9 9 15 11 12 3 -3 3 -13 -1 -22z"/>
<path d="M11765 6150 c3 -5 8 -10 11 -10 2 0 4 5 4 10 0 6 -5 10 -11 10 -5 0
-7 -4 -4 -10z"/>
<path d="M9150 6139 c0 -5 5 -7 10 -4 6 3 10 8 10 11 0 2 -4 4 -10 4 -5 0 -10
-5 -10 -11z"/>
<path d="M11733 6108 c-5 -7 -10 -24 -11 -38 -1 -22 0 -23 9 -7 6 9 7 22 4 27
-3 6 1 10 9 10 9 0 16 5 16 10 0 14 -16 12 -27 -2z"/>
<path d="M11757 6053 c-11 -10 -8 -33 3 -33 6 0 10 6 10 14 0 8 6 17 13 19 8
4 6 6 -4 6 -9 1 -19 -2 -22 -6z"/>
<path d="M11720 6010 c0 -5 5 -10 10 -10 6 0 10 5 10 10 0 6 -4 10 -10 10 -5
0 -10 -4 -10 -10z"/>
<path d="M19440 5944 c-71 -12 -117 -27 -135 -43 -28 -26 -91 -44 -128 -37
-50 9 -205 -11 -245 -32 -37 -18 -37 -18 -70 4 -37 25 -139 41 -198 29 -64
-12 -246 -107 -284 -148 -80 -87 -100 -104 -184 -152 -176 -100 -266 -166
-440 -319 -84 -74 -225 -218 -263 -268 -15 -20 -45 -57 -66 -81 -64 -76 -192
-317 -202 -382 -4 -22 -17 -67 -30 -100 -13 -33 -35 -103 -51 -155 -15 -52
-35 -111 -45 -130 -22 -47 -44 -149 -74 -359 -15 -95 -37 -210 -52 -255 -22
-70 -32 -87 -76 -129 -29 -26 -96 -70 -149 -98 -111 -56 -136 -87 -170 -208
-29 -99 -29 -266 0 -349 17 -47 20 -67 12 -82 -16 -31 -12 -39 29 -56 25 -10
43 -25 51 -44 10 -24 7 -37 -23 -101 -19 -41 -39 -90 -45 -109 -16 -52 -51
-270 -62 -390 -6 -58 -12 -118 -15 -135 -3 -16 -9 -71 -14 -121 -6 -53 -46
-236 -97 -440 -85 -342 -87 -352 -94 -509 -6 -129 -13 -184 -39 -284 -17 -68
-30 -140 -30 -160 1 -20 -4 -49 -10 -64 -6 -15 -10 -31 -9 -35 1 -4 -4 -25
-10 -47 -7 -22 -12 -66 -12 -97 l0 -58 38 0 c35 0 38 3 60 54 13 29 28 86 33
127 5 41 23 124 39 184 16 61 39 184 50 275 11 91 31 210 44 265 13 55 36 167
51 249 15 82 38 180 51 219 13 39 37 152 54 251 24 148 29 200 25 287 -6 127
8 253 36 333 17 47 19 64 10 83 -26 57 3 96 72 97 l42 1 95 -157 c138 -228
187 -305 241 -378 55 -74 164 -170 212 -186 l32 -11 8 -103 c6 -84 5 -106 -7
-119 -37 -41 -56 -181 -61 -452 -2 -107 -9 -214 -15 -239 -13 -52 -25 -178
-39 -405 -7 -101 -19 -197 -34 -260 -13 -55 -23 -102 -21 -104 5 -5 5018 29
5162 35 77 4 122 10 122 17 0 6 13 22 30 36 39 35 99 190 116 306 18 115 32
187 50 250 8 28 21 114 29 192 8 78 24 184 35 235 13 56 23 148 27 233 5 136
6 141 33 165 23 23 28 36 33 105 3 44 15 107 25 140 21 63 34 323 32 645 0 80
7 213 16 295 32 304 29 528 -15 893 -10 89 -16 174 -12 190 10 38 -6 115 -39
186 -15 34 -31 76 -35 95 -5 22 -26 52 -59 85 -28 29 -68 84 -90 123 -30 56
-71 103 -185 216 -93 93 -167 156 -205 177 -42 24 -66 46 -88 82 -21 34 -55
67 -108 104 -72 50 -200 174 -200 193 0 12 -227 217 -279 252 -28 18 -57 29
-80 29 -30 0 -40 6 -60 35 -13 19 -38 44 -56 55 -18 11 -49 40 -69 64 -20 25
-79 72 -136 108 -58 36 -100 70 -100 79 0 25 -26 42 -160 107 -199 95 -452
149 -952 202 -130 13 -199 13 -223 -3 -15 -9 -49 -11 -135 -6 -63 4 -131 9
-150 12 -19 3 -46 3 -60 1z m730 -129 c52 -3 129 -15 170 -26 41 -11 134 -26
205 -34 188 -19 364 -83 495 -180 47 -34 108 -77 135 -95 63 -42 184 -135 289
-223 44 -37 115 -91 156 -119 112 -77 187 -145 215 -196 14 -24 25 -46 25 -48
0 -2 -36 -4 -80 -4 -84 0 -118 11 -386 120 l-71 29 -369 -3 c-791 -6 -1035
-13 -1109 -30 -38 -9 -126 -23 -195 -31 -304 -36 -511 -100 -674 -209 -53 -35
-173 -106 -268 -157 -250 -134 -310 -172 -417 -259 -159 -129 -211 -195 -211
-266 0 -24 4 -44 8 -44 13 0 56 50 100 116 55 83 145 168 213 203 59 30 177
109 219 147 14 13 48 33 75 45 28 12 84 43 125 69 203 127 324 175 475 190 50
4 124 19 165 33 237 76 282 83 620 97 135 5 264 14 287 20 57 14 362 13 519
-2 71 -7 149 -11 174 -11 62 2 231 -17 252 -28 10 -5 37 -14 60 -18 24 -5 69
-16 101 -25 32 -9 72 -16 88 -16 17 0 63 -11 102 -25 40 -13 95 -29 122 -35
108 -24 249 -73 271 -95 32 -32 22 -65 -20 -65 -38 0 -228 40 -351 75 -49 14
-105 25 -123 25 -18 0 -61 6 -95 14 -227 52 -284 59 -420 50 -73 -5 -229 -9
-347 -9 -203 0 -217 1 -257 22 -41 22 -44 22 -250 13 -385 -19 -507 -39 -732
-119 -63 -23 -128 -41 -145 -41 l-31 1 30 24 c35 29 16 35 -31 10 -16 -8 -37
-15 -47 -15 -35 0 -265 -81 -298 -104 -69 -50 -178 -114 -205 -120 -29 -8
-110 -67 -195 -144 -30 -26 -92 -76 -139 -109 -86 -62 -140 -113 -178 -169
-31 -45 -97 -201 -112 -264 -7 -30 -26 -86 -42 -123 -16 -38 -31 -93 -33 -123
-3 -30 -9 -63 -15 -73 -5 -11 -21 -64 -35 -119 -14 -55 -44 -142 -66 -192
l-41 -92 26 -25 c31 -28 30 -27 11 -57 -8 -12 -24 -65 -36 -116 -11 -51 -22
-96 -24 -100 -2 -4 -13 -71 -25 -151 -11 -79 -29 -200 -40 -269 -16 -107 -24
-192 -43 -460 -2 -25 -15 -112 -29 -195 -14 -82 -30 -179 -36 -215 -6 -36 -25
-130 -42 -210 -23 -104 -36 -197 -44 -328 -9 -136 -16 -187 -27 -198 -22 -22
-47 -7 -59 34 -15 54 -12 273 5 377 15 96 29 207 45 370 6 55 23 165 40 245
16 80 34 199 40 265 12 129 54 439 69 508 6 23 15 73 21 111 14 88 73 299 102
362 19 44 21 67 22 224 l1 175 68 190 c38 104 71 202 74 217 5 26 4 28 -18 20
-16 -6 -49 -51 -102 -143 -146 -250 -180 -344 -158 -444 8 -38 8 -64 -3 -110
-17 -77 -58 -283 -91 -455 -33 -167 -57 -277 -101 -448 -19 -73 -41 -181 -50
-240 -14 -97 -56 -222 -73 -222 -4 0 -36 28 -72 63 -65 63 -115 140 -138 209
-8 23 -48 75 -105 136 -83 89 -95 106 -110 163 -10 35 -26 80 -36 99 -34 67
-35 100 -1 171 21 44 33 92 41 154 6 50 13 98 16 108 3 11 3 39 -1 63 -5 39
-11 46 -42 59 l-36 15 7 51 c6 41 3 56 -14 85 -12 19 -30 39 -40 44 -10 5 -27
25 -38 44 l-20 34 27 26 c15 14 32 26 39 26 19 0 108 -68 126 -95 19 -29 43
-33 50 -7 2 9 5 53 5 96 0 44 4 82 9 85 8 5 24 51 27 76 17 144 61 300 124
439 21 45 55 134 76 197 20 63 44 128 53 144 42 82 200 307 250 355 117 113
266 276 305 335 77 112 228 257 422 402 129 97 224 149 475 262 69 31 137 64
151 74 14 9 57 25 95 36 38 10 100 28 139 40 38 11 88 21 110 21 22 0 52 8 65
17 13 10 43 20 65 23 48 7 609 3 745 -5z m1966 -1210 c-6 -17 -26 -20 -26 -5
0 16 24 40 28 29 2 -5 1 -16 -2 -24z m-5362 -1449 c18 -7 42 -26 54 -41 40
-50 25 -225 -18 -225 -13 0 -36 47 -44 89 -7 37 -31 71 -51 71 -28 0 -34 73
-8 102 19 22 24 22 67 4z"/>
<path d="M10093 5786 c-6 -10 -23 -19 -42 -21 -18 -1 -37 -7 -44 -14 -6 -6
-17 -11 -24 -11 -7 0 -17 -9 -23 -20 -6 -11 -8 -20 -5 -20 4 0 -3 -16 -15 -35
-19 -30 -20 -35 -5 -35 9 0 23 7 31 15 9 8 24 15 35 15 16 0 19 5 14 20 -4 11
-2 20 4 20 6 0 11 -8 11 -17 0 -14 4 -12 25 7 14 13 25 34 25 46 0 13 7 27 16
32 9 5 15 15 12 23 -3 10 -7 9 -15 -5z"/>
<path d="M12180 5790 c0 -5 5 -10 10 -10 6 0 10 5 10 10 0 6 -4 10 -10 10 -5
0 -10 -4 -10 -10z"/>
<path d="M10160 5756 c0 -8 -8 -17 -17 -19 -15 -4 -15 -5 -2 -6 21 -1 44 25
29 34 -5 3 -10 -1 -10 -9z"/>
<path d="M1444 5718 c-4 -5 -3 -12 0 -15 7 -8 36 4 36 15 0 11 -29 11 -36 0z"/>
<path d="M4184 5719 c-3 -6 -1 -16 5 -22 8 -8 11 -5 11 11 0 24 -5 28 -16 11z"/>
<path d="M12152 5690 c0 -14 2 -19 5 -12 2 6 2 18 0 25 -3 6 -5 1 -5 -13z"/>
<path d="M4120 5691 c0 -5 5 -13 10 -16 6 -3 10 -2 10 4 0 5 -4 13 -10 16 -5
3 -10 2 -10 -4z"/>
<path d="M12062 5679 c2 -7 10 -15 17 -17 8 -3 12 1 9 9 -2 7 -10 15 -17 17
-8 3 -12 -1 -9 -9z"/>
<path d="M3736 5655 c-11 -8 -15 -15 -9 -15 6 0 16 7 23 15 16 19 11 19 -14 0z"/>
<path d="M3760 5630 c0 -5 5 -10 10 -10 6 0 10 5 10 10 0 6 -4 10 -10 10 -5 0
-10 -4 -10 -10z"/>
<path d="M4656 5582 c-9 -48 -7 -55 13 -43 10 7 11 18 4 47 l-10 39 -7 -43z"/>
<path d="M9631 5611 c-11 -7 -9 -10 10 -13 25 -5 20 -8 -26 -23 -9 -3 -15 -17
-15 -36 0 -32 0 -32 21 -13 11 10 35 18 52 19 26 0 33 5 35 23 6 43 -38 67
-77 43z"/>
<path d="M1880 5149 c0 -5 5 -7 10 -4 6 3 10 8 10 11 0 2 -4 4 -10 4 -5 0 -10
-5 -10 -11z"/>
<path d="M1745 5120 c-3 -5 -2 -10 4 -10 5 0 13 5 16 10 3 6 2 10 -4 10 -5 0
-13 -4 -16 -10z"/>
<path d="M1785 5110 c-3 -6 1 -7 9 -4 18 7 21 14 7 14 -6 0 -13 -4 -16 -10z"/>
<path d="M1065 4730 c4 -6 11 -8 16 -5 14 9 11 15 -7 15 -8 0 -12 -5 -9 -10z"/>
<path d="M12335 4590 c-3 -5 -1 -10 4 -10 6 0 11 5 11 10 0 6 -2 10 -4 10 -3
0 -8 -4 -11 -10z"/>
<path d="M1465 4260 c3 -5 8 -10 11 -10 2 0 4 5 4 10 0 6 -5 10 -11 10 -5 0
-7 -4 -4 -10z"/>
<path d="M12220 4230 c0 -5 5 -10 10 -10 6 0 10 5 10 10 0 6 -4 10 -10 10 -5
0 -10 -4 -10 -10z"/>
<path d="M12220 4191 c0 -5 -3 -18 -6 -28 -5 -17 -5 -17 9 -1 8 10 17 15 20
11 4 -3 7 1 7 10 0 10 -7 17 -15 17 -8 0 -15 -4 -15 -9z"/>
<path d="M10536 3984 c-12 -31 3 -34 22 -4 10 16 10 20 -2 20 -8 0 -17 -7 -20
-16z"/>
<path d="M10475 3960 c-3 -5 1 -10 9 -10 8 0 18 5 21 10 3 6 -1 10 -9 10 -8 0
-18 -4 -21 -10z"/>
<path d="M10420 3930 c0 -5 5 -10 11 -10 5 0 7 5 4 10 -3 6 -8 10 -11 10 -2 0
-4 -4 -4 -10z"/>
<path d="M10455 3930 c-11 -18 24 -23 40 -6 15 15 14 16 -9 16 -14 0 -28 -5
-31 -10z"/>
<path d="M10385 3880 c-3 -5 1 -13 10 -16 22 -9 29 1 11 15 -10 8 -16 9 -21 1z"/>
<path d="M10303 3863 c4 -3 0 -15 -10 -25 -16 -18 -8 -25 13 -10 20 13 25 42
7 42 -9 0 -13 -3 -10 -7z"/>
<path d="M571 3855 c0 -5 6 -19 14 -29 15 -19 15 -19 15 3 0 12 -4 20 -9 17
-5 -4 -12 0 -14 6 -3 7 -6 9 -6 3z"/>
<path d="M985 3749 c-9 -14 -2 -20 14 -10 8 6 9 11 3 15 -6 3 -14 1 -17 -5z"/>
<path d="M10115 3690 c3 -5 11 -10 16 -10 6 0 7 5 4 10 -3 6 -11 10 -16 10 -6
0 -7 -4 -4 -10z"/>
<path d="M11985 3610 c4 -6 11 -8 16 -5 14 9 11 15 -7 15 -8 0 -12 -5 -9 -10z"/>
<path d="M7926 3342 c-3 -5 0 -17 7 -26 12 -16 13 -16 14 3 2 22 -12 37 -21
23z"/>
<path d="M12057 3343 c-3 -5 -2 -15 2 -22 5 -7 11 -9 14 -4 3 5 2 15 -2 22 -5
7 -11 9 -14 4z"/>
<path d="M8070 3324 c0 -8 5 -12 10 -9 6 4 8 11 5 16 -9 14 -15 11 -15 -7z"/>
<path d="M1380 3287 c0 -9 -7 -17 -16 -17 -11 0 -14 -5 -10 -16 3 -9 6 -18 6
-20 0 -2 5 -4 10 -4 6 0 9 3 9 8 -3 18 2 26 9 15 5 -8 13 -9 22 -3 13 8 11 13
-7 32 -20 19 -23 20 -23 5z"/>
<path d="M1440 3249 c0 -11 5 -17 10 -14 6 3 10 13 10 21 0 8 -4 14 -10 14 -5
0 -10 -9 -10 -21z"/>
<path d="M9825 3231 c-3 -5 -1 -12 5 -16 5 -3 10 1 10 9 0 18 -6 21 -15 7z"/>
<path d="M9675 3199 c-9 -14 -2 -20 14 -10 8 6 9 11 3 15 -6 3 -14 1 -17 -5z"/>
<path d="M9628 3155 c2 -14 8 -25 12 -25 10 0 1 38 -10 45 -4 2 -5 -7 -2 -20z"/>
<path d="M9548 3115 c-13 -29 -13 -35 -2 -35 19 0 41 47 28 60 -6 6 -16 -3
-26 -25z"/>
<path d="M9595 3140 c-3 -5 -1 -10 4 -10 6 0 11 5 11 10 0 6 -2 10 -4 10 -3 0
-8 -4 -11 -10z"/>
<path d="M12070 3139 c0 -5 5 -7 10 -4 6 3 10 8 10 11 0 2 -4 4 -10 4 -5 0
-10 -5 -10 -11z"/>
<path d="M12040 3068 c0 -16 5 -28 10 -28 13 0 13 20 0 40 -8 12 -10 9 -10
-12z"/>
<path d="M12070 3085 c0 -5 5 -17 10 -25 5 -8 10 -10 10 -5 0 6 -5 17 -10 25
-5 8 -10 11 -10 5z"/>
<path d="M8342 3068 c5 -15 28 -23 28 -10 0 5 -7 13 -16 16 -10 4 -14 1 -12
-6z"/>
<path d="M8427 2954 c3 -7 9 -14 14 -14 14 0 10 17 -5 23 -10 4 -13 1 -9 -9z"/>
<path d="M9380 2934 c0 -8 5 -12 10 -9 6 4 8 11 5 16 -9 14 -15 11 -15 -7z"/>
<path d="M8568 2873 c-16 -4 -33 -32 -23 -41 2 -3 11 0 18 6 8 7 16 10 19 7 3
-3 10 1 17 9 13 16 -2 25 -31 19z"/>
<path d="M8604 2826 c-17 -13 -17 -14 9 -13 27 2 35 11 18 21 -4 3 -17 -1 -27
-8z"/>
<path d="M9080 2720 c0 -5 5 -10 10 -10 6 0 10 5 10 10 0 6 -4 10 -10 10 -5 0
-10 -4 -10 -10z"/>
<path d="M9120 2726 c0 -2 7 -6 15 -10 8 -3 15 -1 15 4 0 6 -7 10 -15 10 -8 0
-15 -2 -15 -4z"/>
<path d="M2286 2494 c-8 -21 -8 -24 4 -24 6 0 10 6 10 14 0 8 8 17 18 19 13 4
12 5 -4 6 -12 0 -25 -6 -28 -15z"/>
<path d="M2336 2491 c-4 -7 -5 -15 -2 -18 9 -9 19 4 14 18 -4 11 -6 11 -12 0z"/>
<path d="M2363 2465 c0 -19 5 -25 21 -24 11 0 15 3 9 6 -7 2 -13 13 -13 24 0
10 -4 19 -9 19 -5 0 -8 -11 -8 -25z"/>
<path d="M11412 2177 c-28 -29 -31 -37 -23 -60 15 -39 44 -51 81 -32 25 13 30
21 30 54 0 36 -23 71 -46 71 -6 0 -25 -15 -42 -33z"/>
<path d="M4870 2106 c0 -30 3 -61 6 -70 8 -22 41 -20 54 3 24 47 0 121 -41
121 -16 0 -19 -7 -19 -54z"/>
<path d="M4470 2139 c0 -9 -9 -28 -20 -42 -26 -32 -66 -155 -80 -243 -6 -36
-19 -83 -29 -103 -15 -29 -20 -66 -23 -196 -4 -131 -8 -169 -25 -210 -18 -45
-19 -54 -6 -83 13 -32 38 -51 50 -38 14 13 43 199 47 303 4 90 2 113 -9 123
-8 7 -15 21 -15 32 0 17 5 20 28 15 27 -6 28 -5 51 86 13 51 28 130 32 177 5
47 14 95 19 108 14 31 13 45 -5 68 -12 16 -14 16 -15 3z"/>
<path d="M4543 2118 c-13 -24 -18 -56 -18 -113 -1 -99 -18 -213 -43 -285 -24
-69 -45 -289 -36 -373 8 -77 42 -123 58 -81 4 9 11 73 17 141 6 78 17 144 29
176 11 29 25 95 31 147 6 52 21 143 35 202 13 59 24 132 24 162 l0 56 -40 0
c-34 0 -42 -4 -57 -32z"/>
<path d="M12291 2137 c-17 -17 -13 -42 9 -62 28 -25 52 -13 48 26 -3 35 -37
56 -57 36z"/>
<path d="M4716 2131 c-3 -4 -8 -53 -11 -107 -8 -122 -28 -244 -59 -349 -38
-130 -56 -217 -56 -270 0 -27 -7 -77 -15 -110 -8 -33 -14 -77 -15 -97 0 -35 2
-38 28 -38 40 0 53 34 51 134 0 44 6 110 14 146 9 36 19 103 22 149 4 47 18
123 32 170 22 78 37 155 58 296 4 28 15 58 23 68 14 16 12 17 -26 17 -22 0
-43 -4 -46 -9z"/>
<path d="M5052 2093 c-16 -71 -1 -90 46 -57 26 18 28 45 6 79 -25 38 -41 31
-52 -22z"/>
<path d="M5847 2133 c-12 -12 -7 -60 7 -72 8 -7 34 -11 58 -9 34 2 44 7 46 23
4 29 -91 79 -111 58z"/>
<path d="M7330 2134 c-14 -3 -40 -7 -57 -10 -40 -6 -40 -11 -8 -47 22 -23 33
-27 83 -27 72 0 84 8 80 51 -3 31 -6 34 -38 35 -19 1 -46 0 -60 -2z"/>
<path d="M6344 2098 c8 -38 20 -48 64 -48 33 0 33 1 27 33 -10 46 -12 47 -57
47 -40 0 -40 0 -34 -32z"/>
<path d="M6947 2116 c-4 -9 -20 -22 -37 -27 -35 -13 -37 -20 -12 -42 21 -19
27 -20 127 -18 73 2 78 3 60 17 -17 13 -18 17 -6 35 18 31 2 42 -67 47 -48 3
-60 1 -65 -12z"/>
<path d="M7603 2095 c-6 -14 -8 -27 -4 -29 3 -2 53 -6 110 -7 89 -2 104 -1
113 15 20 35 -7 46 -111 46 -93 0 -96 -1 -108 -25z"/>
<path d="M7960 2107 c0 -8 8 -21 18 -30 15 -14 40 -17 129 -17 105 0 111 1
116 22 3 12 4 25 1 30 -3 4 -63 8 -135 8 -101 0 -129 -3 -129 -13z"/>
<path d="M8430 2111 c-61 -6 -65 -7 -65 -31 0 -24 3 -25 80 -31 82 -7 174 -2
194 11 36 21 -53 64 -122 58 -12 -1 -51 -4 -87 -7z"/>
<path d="M9878 2112 c-63 -3 -68 -4 -68 -26 0 -14 9 -27 23 -33 30 -14 315 -7
333 8 37 31 1 45 -126 50 -52 2 -125 3 -162 1z"/>
<path d="M5241 2091 c-16 -28 -14 -58 4 -65 42 -16 62 36 26 68 -19 17 -20 17
-30 -3z"/>
<path d="M5443 2094 c-7 -18 20 -44 44 -44 20 0 27 28 13 45 -17 20 -49 19
-57 -1z"/>
<path d="M5630 2102 c0 -17 38 -43 66 -45 39 -3 46 29 9 43 -32 12 -75 13 -75
2z"/>
<path d="M6100 2095 c-17 -21 -4 -33 45 -40 34 -5 42 -3 53 15 7 11 10 25 7
30 -10 16 -91 12 -105 -5z"/>
<path d="M6583 2100 c-33 -13 -28 -36 8 -49 43 -15 162 -14 177 1 25 25 10 35
-65 46 -89 14 -90 14 -120 2z"/>
<path d="M9576 2098 c-13 -7 -58 -9 -139 -4 -92 5 -118 3 -115 -7 6 -16 125
-29 149 -17 12 7 40 5 86 -5 97 -22 95 -23 103 7 6 19 4 28 -7 32 -23 9 -56 7
-77 -6z"/>
<path d="M8880 2093 c-60 -4 -81 -16 -63 -34 18 -18 254 -12 272 5 33 34 -21
41 -209 29z"/>
<path d="M13693 2038 c-11 -13 -26 -38 -33 -55 -11 -30 -16 -33 -54 -33 -49 0
-103 -30 -111 -63 -3 -12 -1 -35 4 -51 20 -51 14 -130 -14 -167 -64 -90 -78
-161 -51 -264 12 -48 13 -73 5 -132 -17 -125 18 -237 84 -264 68 -28 177 13
177 67 0 21 23 132 36 177 3 11 22 26 42 34 79 32 93 78 43 135 -62 72 -66
105 -15 156 55 55 81 93 94 139 11 36 10 53 -9 130 -11 48 -21 100 -21 114 0
26 -36 67 -77 88 -35 18 -78 13 -100 -11z m93 -63 c14 -14 23 -29 20 -33 -3
-5 8 -48 25 -97 44 -132 42 -140 -42 -217 l-71 -66 6 -63 c4 -54 10 -67 36
-92 16 -15 30 -32 30 -38 0 -5 -15 -19 -34 -30 -48 -28 -80 -83 -95 -164 -8
-38 -18 -78 -23 -87 -11 -22 -58 -24 -98 -3 -45 23 -55 71 -36 177 15 91 12
127 -18 170 -30 42 -12 123 40 174 18 19 37 46 40 59 5 22 1 119 -8 194 -3 22
2 25 59 37 74 15 84 20 77 39 -6 15 37 65 56 65 6 0 22 -11 36 -25z"/>
<path d="M10857 1994 c-12 -13 -8 -41 9 -55 19 -15 95 -15 125 1 13 7 19 19
17 33 -3 20 -10 22 -73 25 -39 1 -74 0 -78 -4z"/>
<path d="M4821 1946 c-8 -13 -10 -29 -7 -35 4 -6 2 -36 -4 -67 -7 -31 -10 -57
-8 -59 2 -2 14 -6 28 -10 23 -5 27 -1 47 57 24 66 22 104 -5 126 -23 18 -37
15 -51 -12z"/>
<path d="M6934 1943 c-43 -15 -54 -31 -54 -84 0 -35 8 -41 34 -24 19 12 32 13
80 3 54 -12 59 -11 73 7 8 12 12 30 8 45 -3 14 -7 34 -9 45 -2 16 -11 20 -47
21 -24 1 -63 -5 -85 -13z"/>
<path d="M7963 1942 c-37 -3 -43 -6 -43 -26 0 -29 23 -34 158 -38 98 -2 116 5
110 42 -3 22 -7 23 -93 24 -49 1 -109 0 -132 -2z"/>
<path d="M8818 1942 c-13 -2 -18 -13 -18 -37 0 -42 11 -45 160 -45 146 0 160
4 160 41 0 17 -6 32 -12 34 -16 6 -267 12 -290 7z"/>
<path d="M9463 1938 c-10 -4 -50 -7 -90 -7 -101 -1 -111 -7 -77 -42 l28 -29
153 0 154 0 -3 43 -3 42 -72 0 c-40 0 -81 -3 -90 -7z"/>
<path d="M6053 1924 c-8 -22 17 -44 59 -50 29 -5 36 -3 40 14 9 34 -9 52 -53
52 -27 0 -42 -5 -46 -16z"/>
<path d="M6323 1924 c-9 -24 17 -44 59 -44 26 0 41 5 45 16 8 22 -5 31 -55 37
-32 4 -45 2 -49 -9z"/>
<path d="M6598 1933 c-19 -5 -32 -33 -21 -43 17 -16 121 -19 140 -4 17 13 17
15 -6 34 -22 19 -70 25 -113 13z"/>
<path d="M7203 1925 c-14 -10 -19 -22 -16 -35 5 -18 14 -20 104 -20 l99 0 0
29 c0 17 -6 31 -16 35 -32 12 -149 6 -171 -9z"/>
<path d="M7530 1927 c0 -36 26 -49 116 -58 87 -8 89 -8 111 16 41 46 24 55
-108 55 -91 0 -119 -3 -119 -13z"/>
<path d="M8510 1934 c-19 -2 -63 -7 -98 -10 -57 -5 -63 -8 -60 -27 4 -29 55
-40 156 -34 46 3 85 7 87 9 3 2 1 17 -4 34 -8 31 -18 34 -81 28z"/>
<path d="M2310 1923 c-19 -2 -46 -6 -59 -9 l-24 -5 23 -24 c13 -13 23 -38 24
-55 1 -30 1 -30 56 -29 72 2 119 12 103 22 -7 5 -13 19 -13 33 0 14 -7 36 -16
49 -16 25 -21 26 -94 18z"/>
<path d="M5010 1915 c-15 -18 -26 -95 -14 -95 21 0 72 40 77 59 10 39 -38 67
-63 36z"/>
<path d="M5220 1922 c-24 -7 -40 -33 -40 -65 0 -27 2 -29 27 -22 40 10 53 24
53 55 0 29 -14 40 -40 32z"/>
<path d="M5406 1921 c-9 -14 11 -58 29 -65 27 -10 35 -7 35 12 0 39 -48 79
-64 53z"/>
<path d="M5617 1923 c-12 -11 -8 -40 8 -53 21 -18 55 -3 55 25 0 28 -44 48
-63 28z"/>
<path d="M5858 1922 c-43 -3 -48 -6 -48 -27 0 -27 27 -39 76 -33 22 2 30 9 32
27 5 31 -5 37 -60 33z"/>
<path d="M9816 1921 c-16 -3 -31 -11 -33 -17 -3 -8 49 -11 184 -10 181 1 242
10 197 27 -23 9 -306 9 -348 0z"/>
<path d="M2474 1866 c0 -52 1 -55 30 -60 16 -3 31 -4 33 -2 4 3 -56 116 -61
116 -1 0 -2 -24 -2 -54z"/>
<path d="M11335 1868 c-49 -4 -128 -15 -175 -23 -47 -8 -101 -15 -120 -15 -19
0 -53 -5 -75 -10 -22 -5 -77 -10 -122 -12 -53 -2 -83 -7 -83 -14 0 -14 -77
-44 -113 -44 -19 0 -27 -5 -27 -18 0 -10 -7 -27 -15 -38 -18 -23 -20 -145 -3
-162 7 -7 17 -8 28 -2 82 44 473 7 687 -66 114 -39 209 -48 304 -30 98 18 141
44 176 103 21 36 27 61 29 117 l3 72 -78 41 c-42 24 -105 49 -138 57 -72 16
-83 22 -83 42 0 16 -46 17 -195 2z m389 -188 c7 0 19 -19 26 -41 13 -37 12
-43 -3 -54 -9 -6 -14 -15 -10 -18 16 -17 -42 -5 -68 14 -37 26 -40 70 -7 94
13 8 29 13 36 10 8 -3 19 -5 26 -5z"/>
<path d="M5577 1747 c-20 -14 -32 -76 -19 -95 5 -8 24 -14 42 -15 32 -2 34 0
46 48 8 28 12 56 9 63 -6 16 -56 16 -78 -1z"/>
<path d="M7526 1753 c-3 -3 -6 -23 -6 -44 0 -52 20 -60 128 -57 l87 3 -1 38
c-1 21 -5 42 -10 46 -11 11 -189 23 -198 14z"/>
<path d="M4976 1710 c-20 -50 -20 -74 -1 -90 12 -10 18 -10 33 1 27 22 32 32
32 66 0 74 -38 88 -64 23z"/>
<path d="M7154 1725 c-13 -20 -14 -28 -4 -40 18 -21 67 -19 97 5 32 25 59 25
100 1 33 -21 43 -18 43 9 0 38 -32 50 -128 50 -87 0 -92 -1 -108 -25z"/>
<path d="M7970 1726 c0 -24 3 -26 41 -26 22 0 54 -8 70 -17 30 -18 45 -13 36
11 -10 24 -50 45 -100 52 -46 7 -47 6 -47 -20z"/>
<path d="M8768 1744 c-12 -11 -10 -82 2 -105 7 -13 21 -19 45 -19 18 0 37 -4
40 -10 11 -17 118 -12 141 8 28 22 77 102 69 110 -4 4 -25 8 -48 9 -23 1 -87
5 -142 8 -55 4 -103 4 -107 -1z m169 -80 c3 -8 -1 -23 -10 -32 -15 -14 -17
-14 -23 1 -8 21 1 47 16 47 6 0 13 -7 17 -16z"/>
<path d="M2275 1730 c-3 -5 1 -10 7 -13 10 -3 7 -16 -9 -49 -13 -25 -23 -59
-23 -77 l0 -32 53 7 c80 11 110 27 113 60 1 16 3 36 5 44 1 8 1 27 1 42 -2 27
-3 27 -72 27 -38 -1 -72 -5 -75 -9z"/>
<path d="M5370 1716 c-15 -42 -9 -61 20 -61 32 0 38 33 11 66 l-19 24 -12 -29z"/>
<path d="M6278 1715 c-15 -34 2 -51 60 -60 38 -6 42 -5 42 13 0 12 -4 32 -10
46 -8 21 -16 26 -45 26 -28 0 -38 -5 -47 -25z"/>
<path d="M6612 1729 c-57 -11 -62 -15 -62 -50 0 -36 4 -36 43 -3 28 24 37 26
89 20 58 -6 64 -2 52 28 -7 18 -50 20 -122 5z"/>
<path d="M6836 1725 c-12 -33 -7 -93 10 -99 26 -10 104 -7 145 6 38 11 39 12
33 47 -4 20 -9 39 -13 42 -3 4 -42 10 -87 14 -71 6 -82 5 -88 -10z"/>
<path d="M8340 1703 c-23 -20 -37 -39 -33 -43 16 -14 201 -32 220 -21 10 6 30
15 46 21 32 11 33 19 6 54 -19 25 -25 26 -110 26 -88 0 -89 0 -129 -37z"/>
<path d="M2220 1720 c-10 -6 -12 -12 -4 -20 7 -7 16 -5 29 10 14 15 15 20 4
20 -8 0 -21 -5 -29 -10z"/>
<path d="M5782 1718 c-18 -18 -15 -56 6 -62 51 -14 81 -16 87 -6 13 21 -4 58
-29 64 -13 3 -30 8 -38 11 -7 3 -19 0 -26 -7z"/>
<path d="M6027 1723 c-4 -3 -7 -19 -7 -34 0 -22 7 -32 31 -44 17 -9 37 -14 45
-11 20 8 17 60 -4 79 -19 17 -53 22 -65 10z"/>
<path d="M9793 1706 c-15 -13 -24 -28 -20 -33 5 -4 94 -8 198 -9 l189 -1 0 34
0 33 -169 0 c-165 0 -171 -1 -198 -24z"/>
<path d="M5159 1683 c-13 -34 -5 -53 21 -53 13 0 24 10 30 26 16 41 12 54 -15
54 -18 0 -28 -7 -36 -27z"/>
<path d="M7930 1578 c-49 -13 -54 -21 -40 -62 20 -60 40 -64 194 -37 33 6 63
16 68 23 30 48 -26 88 -122 87 -36 0 -81 -5 -100 -11z"/>
<path d="M7533 1533 c-8 -19 -13 -47 -11 -62 3 -26 4 -26 89 -29 68 -2 89 1
99 13 10 11 10 18 1 29 -9 11 -9 19 1 35 19 30 3 38 -86 43 l-78 5 -15 -34z"/>
<path d="M8323 1553 c-8 -3 -13 -23 -13 -49 0 -39 3 -46 26 -54 31 -12 76 -2
158 36 53 24 72 50 44 58 -22 7 -202 14 -215 9z"/>
<path d="M7220 1539 c-55 -9 -98 -38 -86 -57 7 -12 131 -36 150 -29 8 3 22 20
31 37 13 25 14 35 4 46 -13 16 -20 16 -99 3z"/>
<path d="M4951 1499 c-17 -23 -21 -36 -14 -47 16 -25 31 -25 48 2 14 21 15 28
3 51 l-14 26 -23 -32z"/>
<path d="M5994 1516 c-14 -36 0 -51 46 -51 43 0 45 1 45 30 0 28 -3 30 -43 33
-30 2 -44 -1 -48 -12z"/>
<path d="M6550 1526 c0 -3 5 -17 12 -31 13 -28 36 -31 83 -11 28 12 29 13 10
23 -23 12 -105 27 -105 19z"/>
<path d="M6852 1508 c2 -18 13 -24 63 -35 87 -18 105 -17 105 6 0 33 -38 51
-108 51 -60 0 -63 -1 -60 -22z"/>
<path d="M2236 1508 c-9 -5 -24 -7 -31 -4 -8 3 -17 1 -20 -3 -2 -5 5 -11 16
-14 19 -5 21 -11 17 -61 -5 -62 -1 -66 62 -66 49 0 59 15 20 29 -37 12 -50 40
-25 53 28 16 55 47 55 62 0 17 -66 20 -94 4z"/>
<path d="M5327 1503 c-20 -23 -33 -73 -19 -73 6 0 18 -3 26 -6 12 -4 20 4 31
30 8 19 15 42 15 51 0 20 -33 19 -53 -2z"/>
<path d="M5527 1508 c-9 -7 -20 -27 -23 -45 -6 -28 -3 -33 19 -38 49 -13 71
-3 79 35 7 37 -8 60 -42 60 -9 0 -24 -6 -33 -12z"/>
<path d="M6247 1513 c-4 -3 -7 -17 -7 -30 0 -27 40 -48 75 -39 27 7 48 49 32
65 -12 12 -89 15 -100 4z"/>
<path d="M1960 1455 c0 -30 -1 -58 -2 -62 -2 -5 12 -9 30 -11 32 -3 32 -3 32
42 0 35 5 49 20 58 32 20 24 28 -30 28 l-50 0 0 -55z"/>
<path d="M5756 1478 c-8 -40 2 -50 45 -46 31 3 34 6 37 41 l3 37 -39 0 c-36 0
-40 -3 -46 -32z"/>
<path d="M4750 1476 c-4 -13 -12 -55 -15 -93 -8 -76 -1 -88 43 -72 20 7 22 15
22 73 0 99 -28 150 -50 92z"/>
<path d="M5139 1482 c-26 -22 -21 -56 8 -45 29 10 43 24 43 44 0 24 -21 24
-51 1z"/>
<path d="M620 1449 c0 -8 -21 -48 -46 -89 -59 -94 -78 -149 -103 -301 -51
-297 -32 -1003 24 -947 4 4 3 40 -3 80 -8 55 -7 110 3 228 20 211 35 339 45
364 8 23 19 97 51 361 11 94 25 201 30 239 5 38 7 72 4 74 -3 3 -5 -1 -5 -9z"/>
<path d="M10803 1430 c-65 -14 -153 -70 -153 -98 0 -20 130 -4 153 19 15 16
34 19 131 19 97 0 117 3 137 19 29 23 22 27 -66 35 -33 3 -82 7 -110 10 -27 3
-69 1 -92 -4z"/>
<path d="M4150 1337 c0 -10 -8 -17 -17 -17 -10 0 -200 -3 -423 -6 -223 -3
-457 -7 -520 -8 l-115 -1 -5 -63 c-3 -38 -1 -67 5 -70 5 -4 224 -7 485 -7 261
0 484 -4 496 -9 18 -6 25 -1 48 39 29 49 61 143 52 153 -3 3 -6 -2 -6 -11z"/>
<path d="M7875 1320 c-19 -36 -19 -35 1 -54 31 -31 217 -15 231 20 3 8 -2 25
-11 39 -16 24 -21 25 -111 25 l-94 0 -16 -30z"/>
<path d="M6521 1326 c-7 -8 -17 -32 -21 -51 -7 -32 -6 -37 16 -47 39 -18 87 1
98 40 11 39 -3 58 -50 68 -21 4 -34 1 -43 -10z"/>
<path d="M6777 1327 c-9 -7 -20 -27 -23 -45 l-7 -32 112 2 c61 1 111 4 111 7
-1 3 -13 20 -28 37 -23 26 -36 32 -88 37 -41 4 -66 2 -77 -6z"/>
<path d="M7112 1327 c-11 -13 -10 -19 7 -36 18 -18 33 -21 101 -21 78 0 80 1
80 24 0 30 -16 36 -105 43 -56 4 -73 2 -83 -10z"/>
<path d="M7481 1329 c-45 -9 -69 -34 -55 -57 9 -14 29 -18 102 -20 119 -4 156
6 160 40 2 19 -3 30 -18 38 -22 12 -129 11 -189 -1z"/>
<path d="M1940 1245 c0 -47 -1 -88 -2 -92 -2 -5 12 -9 31 -11 29 -3 33 -1 26
15 -21 47 -17 89 10 121 32 39 26 52 -26 52 l-39 0 0 -85z"/>
<path d="M4905 1318 c-5 -19 -16 -68 -22 -105 -5 -32 -4 -33 30 -33 l34 0 7
65 c4 36 4 70 1 75 -9 14 -45 12 -50 -2z"/>
<path d="M2188 1313 c-22 -5 -22 -3 -2 -43 14 -26 15 -39 5 -70 -6 -21 -18
-43 -26 -50 -8 -7 -15 -16 -15 -21 0 -10 68 -11 124 -1 l39 7 3 93 3 92 -57
-1 c-31 -1 -65 -3 -74 -6z"/>
<path d="M5514 1296 c-38 -17 -46 -36 -33 -75 12 -34 43 -49 64 -31 19 16 49
96 40 109 -8 14 -33 13 -71 -3z"/>
<path d="M5972 1297 c-20 -24 -33 -71 -27 -99 6 -26 10 -28 51 -28 l44 0 0 58
c0 32 -5 63 -12 70 -16 16 -43 15 -56 -1z"/>
<path d="M5290 1287 c-44 -22 -41 -127 4 -127 30 0 42 15 51 60 5 27 2 41 -12
58 -16 19 -21 20 -43 9z"/>
<path d="M11240 1288 c-32 -5 -71 -20 -94 -36 -49 -33 -116 -98 -116 -111 0
-6 13 -23 29 -38 28 -27 91 -137 91 -159 0 -6 36 -24 81 -39 80 -27 81 -27
121 -9 59 26 120 91 141 148 16 46 16 51 1 67 -9 10 -14 25 -10 34 3 8 3 29
-1 45 -5 26 -10 30 -38 30 l-32 0 14 -44 c25 -75 -11 -159 -93 -218 -54 -38
-104 -32 -131 16 -55 97 -97 198 -88 212 6 8 46 31 90 51 60 26 88 33 115 29
73 -11 83 -11 87 1 8 21 -88 33 -167 21z"/>
<path d="M6227 1278 c-23 -8 -28 -15 -25 -36 3 -31 21 -37 84 -27 31 4 45 12
49 26 14 43 -41 62 -108 37z"/>
<path d="M4720 1241 c-20 -38 -5 -101 25 -101 13 0 35 56 35 91 0 16 -19 29
-40 29 -5 0 -14 -9 -20 -19z"/>
<path d="M12050 1240 c-6 -10 -25 -22 -44 -25 -21 -4 -42 -18 -55 -36 -12 -16
-31 -29 -41 -29 -18 0 -19 -3 -8 -20 10 -16 10 -22 -5 -32 -16 -12 -15 -18 18
-82 34 -69 64 -110 73 -102 2 3 -8 39 -23 82 -31 87 -36 141 -15 155 8 5 31
12 50 15 19 4 55 15 79 26 24 11 54 18 67 15 13 -2 21 0 18 4 -3 5 -16 9 -30
9 -17 0 -24 5 -24 20 0 27 -45 27 -60 0z"/>
<path d="M5730 1217 c-14 -7 -26 -20 -28 -30 -3 -14 5 -17 47 -17 50 0 51 1
51 30 0 24 -4 30 -22 30 -13 0 -34 -6 -48 -13z"/>
<path d="M12212 1202 c-11 -7 -7 -12 15 -20 49 -19 57 -29 65 -89 4 -32 10
-75 14 -95 15 -88 -17 -112 -161 -124 -81 -6 -87 -5 -110 16 -33 31 -43 19
-15 -17 30 -39 40 -42 172 -42 l118 -1 39 35 c38 34 39 37 43 118 6 89 -2 117
-32 117 -17 0 -19 5 -14 44 4 24 2 46 -3 49 -19 12 -118 18 -131 9z"/>
<path d="M11247 1133 c-12 -12 -7 -40 11 -62 15 -19 20 -20 44 -9 36 17 35 44
-2 63 -32 17 -43 18 -53 8z"/>
<path d="M1910 1071 c-5 -11 -17 -52 -25 -91 -8 -39 -20 -80 -25 -90 -6 -10
-10 -32 -10 -47 0 -16 -5 -34 -11 -40 -13 -13 -25 -188 -21 -316 3 -118 18
-154 69 -162 21 -4 51 -11 66 -17 40 -15 91 2 180 62 108 72 110 77 108 236
-2 95 2 149 14 195 16 60 15 125 -2 196 -4 17 3 30 26 50 17 15 31 31 31 35 0
11 -152 10 -170 -2 -8 -5 -15 -25 -16 -46 -1 -28 -9 -44 -37 -70 -20 -19 -40
-34 -45 -34 -6 0 -13 -6 -16 -12 -3 -9 -9 -7 -20 6 -20 25 -21 96 -1 122 26
34 18 44 -35 44 -38 0 -52 -4 -60 -19z"/>
<path d="M12110 1075 c-7 -8 -10 -25 -6 -40 5 -20 13 -25 37 -25 37 0 69 16
69 35 0 39 -74 61 -100 30z"/>
<path d="M552 18 c7 -19 50 -21 73 -4 19 14 17 15 -28 16 -35 0 -47 -4 -45
-12z"/>
</g>
</svg>
