<?xml version="1.0" standalone="no"?>
<!DOCTYPE svg PUBLIC "-//W3C//DTD SVG 20010904//EN"
 "http://www.w3.org/TR/2001/REC-SVG-20010904/DTD/svg10.dtd">
<svg version="1.0" xmlns="http://www.w3.org/2000/svg"
 width="703.000000pt" height="694.000000pt" viewBox="0 0 703.000000 694.000000"
 preserveAspectRatio="xMidYMid meet">
<metadata>
Created by potrace 1.16, written by Peter Selinger 2001-2019
</metadata>
<g transform="translate(0.000000,694.000000) scale(0.100000,-0.100000)"
fill="#000000" stroke="none">
<path d="M3252 6648 c-47 -9 -55 -14 -68 -43 -14 -35 -30 -45 -70 -45 -14 0
-59 -18 -100 -40 -42 -22 -89 -40 -105 -40 -45 0 -102 -34 -132 -78 -17 -26
-51 -54 -98 -81 -40 -23 -86 -58 -102 -77 -47 -54 -87 -74 -150 -74 -42 0 -56
-4 -61 -17 -4 -9 -1 -62 5 -118 10 -93 10 -108 -7 -150 -10 -27 -29 -61 -42
-77 -14 -16 -35 -57 -47 -90 -18 -49 -20 -67 -12 -89 9 -22 7 -36 -6 -64 -25
-52 -21 -97 12 -149 17 -27 31 -66 34 -96 4 -28 25 -106 47 -172 32 -92 49
-129 76 -156 36 -37 39 -57 19 -105 -8 -20 45 -75 99 -102 17 -8 44 -26 60
-39 26 -21 30 -31 27 -68 -3 -55 -30 -84 -83 -91 -23 -3 -50 -15 -61 -26 l-21
-20 24 -53 c27 -62 62 -98 94 -98 13 0 38 -17 61 -40 32 -33 38 -44 29 -58
-14 -24 -174 -102 -289 -142 -53 -18 -127 -48 -165 -66 -39 -18 -89 -38 -113
-45 -23 -6 -96 -37 -162 -69 -66 -32 -137 -65 -159 -74 -65 -27 -136 -86 -191
-160 -85 -114 -172 -186 -224 -186 -44 0 -143 -35 -221 -77 -36 -20 -83 -45
-105 -56 -22 -11 -79 -42 -126 -69 -48 -26 -116 -59 -152 -72 -35 -13 -119
-57 -187 -99 -67 -42 -138 -82 -158 -88 -92 -30 -237 -146 -281 -223 -16 -29
-41 -60 -56 -70 -15 -10 -39 -43 -53 -74 -24 -52 -27 -70 -30 -208 -4 -167 -1
-186 61 -331 38 -91 101 -178 193 -268 34 -34 66 -70 72 -82 13 -23 5 -49 -78
-268 -78 -206 -138 -472 -170 -750 -7 -60 -24 -141 -38 -180 -21 -60 -25 -97
-32 -260 -5 -104 -9 -232 -9 -282 l-1 -93 2085 0 2085 0 -45 43 c-38 37 -45
49 -45 83 0 57 27 178 48 216 26 46 52 49 52 6 1 -53 26 -110 61 -137 29 -22
30 -26 14 -37 -13 -10 -14 -16 -5 -33 12 -24 79 -61 110 -61 23 0 23 0 11 34
-7 18 -6 28 4 36 18 15 49 5 89 -31 18 -16 70 -43 115 -60 46 -17 85 -38 88
-45 3 -9 22 -14 56 -14 31 0 47 4 42 9 -6 5 -66 34 -134 65 -68 31 -142 70
-165 86 -23 16 -70 36 -109 44 -143 33 -161 60 -155 231 4 102 7 115 42 187
48 100 66 111 167 106 43 -2 83 -8 89 -14 8 -8 0 -26 -26 -64 -52 -75 -64
-124 -64 -257 l0 -114 35 -15 c19 -8 66 -21 103 -29 37 -7 80 -19 95 -24 15
-6 57 -13 93 -16 109 -8 183 -62 206 -151 l12 -44 1038 0 1038 0 0 120 c0 66
-4 120 -8 120 -5 0 -18 -9 -30 -21 -23 -21 -22 -30 9 -65 16 -17 17 -23 6 -38
-13 -17 -16 -17 -44 -3 -32 17 -35 26 -48 138 l-7 56 36 7 c20 4 44 2 55 -4
28 -15 33 -13 29 13 -3 20 -9 22 -59 22 -31 0 -67 5 -80 12 -13 6 -62 18 -108
27 -91 17 -96 19 -86 36 4 7 47 10 123 8 64 -1 123 1 131 6 24 15 6 101 -34
162 -32 49 -40 54 -73 55 -111 3 -148 -8 -139 -42 3 -10 -2 -20 -10 -23 -11
-5 -13 -16 -7 -51 5 -40 3 -51 -22 -86 -28 -41 -29 -41 -79 -35 -78 10 -451
20 -469 13 -13 -5 -14 -11 -6 -32 15 -39 -11 -95 -44 -95 -14 0 -27 3 -30 8
-8 13 13 105 26 113 25 16 -6 24 -79 22 -41 -2 -82 1 -91 6 -10 4 -55 5 -102
1 -100 -9 -124 -1 -192 57 -26 23 -68 49 -95 59 -60 22 -73 32 -73 55 0 22
-18 25 -26 5 -8 -22 -30 -26 -65 -14 -31 10 -31 11 -25 62 11 85 25 306 26
384 0 189 -33 -15 -49 -292 -4 -74 -10 -111 -18 -114 -9 -2 -13 8 -13 32 0 24
-5 36 -14 36 -30 0 -177 63 -173 74 3 7 33 10 95 7 84 -3 92 -2 92 15 0 17 -9
19 -95 20 -73 1 -95 -2 -95 -12 0 -7 -14 -29 -31 -49 l-31 -35 27 -22 c89 -75
221 -201 227 -217 13 -37 -43 -173 -96 -232 -22 -23 -37 -52 -41 -76 -15 -95
-17 -98 -66 -97 -70 1 -117 13 -124 32 -7 23 -136 79 -212 91 -34 5 -76 17
-93 26 -18 9 -64 23 -103 31 -95 20 -104 29 -89 94 7 29 12 77 12 107 0 67 28
122 86 169 74 58 104 52 104 -23 0 -93 23 -118 155 -168 38 -14 83 -35 102
-46 34 -21 60 -22 157 -3 27 6 25 7 -30 30 -33 14 -103 31 -158 40 -166 25
-188 47 -194 196 -5 116 23 222 63 240 27 12 88 3 103 -15 6 -7 34 -12 63 -12
49 0 53 2 60 27 7 25 4 28 -28 34 -20 4 -74 4 -121 1 -80 -5 -88 -7 -110 -34
-61 -75 -58 -73 -109 -73 -26 0 -55 -5 -63 -10 -10 -7 5 -10 53 -10 59 0 68
-2 65 -17 -2 -10 -15 -24 -30 -32 -23 -13 -36 -14 -100 -1 -100 19 -132 16
-213 -19 -67 -29 -75 -38 -61 -71 3 -8 -4 -28 -17 -43 -20 -26 -25 -27 -52
-17 -47 18 -1534 -11 -1605 -31 -12 -3 -14 7 -12 58 3 40 0 63 -7 63 -17 0
-31 -36 -31 -79 0 -45 -11 -52 -58 -37 -23 6 -43 6 -65 -1 -19 -6 -96 -9 -192
-7 -280 5 -750 3 -757 -5 -11 -10 19 -118 42 -157 11 -17 40 -50 65 -73 59
-55 103 -56 204 -5 73 36 93 57 164 169 41 63 78 79 106 44 19 -24 22 -24 138
-19 65 3 186 5 268 5 l150 0 -2 -80 c-2 -57 -12 -116 -37 -200 -19 -67 -37
-137 -41 -158 -4 -20 -12 -40 -17 -43 -6 -4 -168 -10 -362 -15 -193 -5 -439
-11 -546 -13 -107 -3 -495 -8 -861 -12 -524 -5 -668 -3 -674 6 -16 27 -9 264
13 390 11 69 33 226 47 350 15 124 37 270 50 325 54 234 97 382 138 488 25 61
50 129 57 149 15 47 42 50 67 7 20 -34 85 -80 180 -128 54 -27 66 -38 89 -84
14 -28 38 -64 51 -79 16 -16 23 -33 19 -43 -5 -14 -10 -13 -45 7 -49 28 -67
15 -26 -18 51 -43 102 -64 150 -64 88 0 141 -91 75 -128 -25 -14 -30 -23 -30
-54 0 -20 -7 -63 -15 -95 -9 -32 -18 -93 -22 -137 -6 -73 -5 -78 13 -74 17 3
19 11 16 61 -3 47 -1 57 12 57 12 0 16 10 16 41 0 23 5 59 12 81 10 33 9 41
-3 49 -12 8 -11 11 4 20 9 5 17 14 17 19 0 5 4 20 10 34 13 35 36 24 45 -20 4
-24 14 -39 31 -46 33 -15 30 -25 -6 -20 -26 4 -30 1 -30 -21 0 -21 5 -25 42
-30 24 -3 47 -2 51 2 16 16 -117 243 -149 255 -19 7 -52 77 -65 136 -23 107
39 277 141 392 52 59 84 75 192 103 63 15 74 15 160 0 51 -8 154 -18 228 -21
142 -5 214 -19 206 -40 -3 -8 13 -13 50 -16 73 -6 87 -21 71 -70 -7 -20 -21
-46 -31 -56 -9 -11 -21 -32 -25 -48 -4 -15 -15 -32 -24 -38 -23 -14 -71 22
-75 57 -2 15 -7 27 -11 27 -5 0 -4 -24 1 -53 l10 -52 -53 -48 -54 -48 18 -30
c22 -40 22 -48 -9 -106 -15 -30 -30 -83 -37 -134 l-12 -84 -35 -5 c-33 -5 -34
-6 -10 -13 14 -4 35 -7 48 -7 32 0 38 -24 17 -70 -9 -21 -18 -53 -19 -72 -2
-48 -29 -47 -149 5 -123 54 -174 66 -184 41 -9 -23 43 -67 70 -60 10 2 31 0
46 -5 14 -6 50 -15 80 -20 29 -4 64 -15 77 -24 24 -15 24 -16 8 -53 -9 -20
-19 -50 -23 -67 -6 -27 -11 -30 -51 -33 -69 -5 -220 43 -272 86 -24 20 -35 27
-26 16 10 -11 18 -25 18 -31 0 -6 7 -13 15 -17 8 -3 15 -12 15 -20 0 -16 196
-85 250 -87 19 -1 150 -1 290 0 l255 2 38 136 c21 75 52 163 68 195 16 31 29
64 29 72 0 8 15 22 33 31 27 14 71 18 272 21 165 2 250 0 272 -8 23 -8 35 -9
45 -1 14 12 462 16 831 7 168 -4 209 -8 214 -20 8 -21 32 -17 53 8 l18 23 354
1 c194 0 363 -3 374 -7 12 -4 42 -10 65 -14 24 -3 51 -8 59 -10 18 -5 561 -19
639 -16 l54 2 -6 -158 c-3 -87 -11 -202 -18 -256 -12 -96 -10 -115 10 -102 8
4 8 12 1 25 -7 13 -6 21 5 30 11 9 15 31 14 80 -1 37 2 73 6 80 4 7 10 78 14
158 l6 146 35 9 c111 27 158 45 188 71 28 25 36 27 56 18 18 -8 28 -7 43 3 22
17 77 19 105 4 14 -8 23 -8 31 0 6 6 44 11 84 11 66 0 75 3 106 30 19 17 46
30 60 30 27 0 61 -34 73 -73 6 -20 7 -20 20 -3 8 12 31 19 73 23 60 6 61 5
100 -33 67 -68 73 -131 18 -191 -41 -46 -124 -16 -148 52 -17 45 -29 45 -29
-1 0 -29 8 -44 36 -70 31 -29 42 -34 86 -34 43 0 54 4 79 31 16 17 29 40 29
50 0 10 5 19 10 19 16 0 12 20 -22 92 -17 37 -28 72 -24 76 4 4 52 9 107 10
88 3 103 1 134 -18 20 -12 43 -33 51 -45 14 -21 14 -27 -1 -55 -12 -22 -13
-35 -6 -44 6 -7 8 -16 5 -19 -13 -12 19 -68 47 -82 88 -46 209 28 209 127 0
29 -8 45 -35 73 -22 21 -45 35 -61 35 -32 0 -85 22 -103 43 -12 16 -8 17 50
18 101 0 143 11 147 35 3 20 1 21 -53 12 -68 -12 -103 -4 -114 25 -24 60 -34
258 -32 622 l2 380 -35 160 c-19 88 -40 215 -46 283 -21 229 -29 255 -133 430
-87 148 -100 163 -245 309 -84 84 -156 153 -161 153 -5 0 -34 20 -63 44 -30
25 -99 66 -154 91 -54 26 -139 67 -189 90 -49 24 -121 51 -160 60 -68 15 -169
45 -505 147 -241 73 -246 75 -334 131 -198 124 -246 183 -265 332 -6 44 -13
100 -17 125 -5 40 -2 50 30 98 39 58 56 108 56 162 0 19 7 90 17 157 15 104
15 135 5 205 -9 66 -17 87 -35 104 -22 19 -45 76 -76 190 -6 23 -25 59 -42 80
-40 49 -76 128 -94 208 -19 79 -42 139 -100 254 -35 71 -55 98 -83 116 -21 13
-49 39 -64 57 -18 25 -39 38 -74 47 -27 7 -56 20 -66 28 -9 9 -45 19 -80 24
-35 4 -84 18 -108 30 -24 12 -73 33 -109 47 -56 21 -75 24 -133 18 -46 -5 -68
-4 -68 4 0 6 -22 22 -50 36 -53 27 -103 30 -198 13z m572 -779 c43 -34 86
-117 86 -167 0 -65 26 -109 113 -192 83 -79 117 -131 117 -177 0 -18 -24 -61
-68 -123 -62 -88 -70 -95 -104 -98 -21 -2 -47 2 -59 9 -22 12 -22 12 12 40 25
21 31 31 23 39 -21 21 -308 -91 -467 -182 -74 -43 -108 -80 -121 -133 -13 -50
-13 -50 -101 -94 l-88 -44 -54 27 c-62 30 -88 31 -221 11 -144 -23 -150 -24
-182 -52 -35 -29 -50 -23 -70 30 -7 18 -43 95 -81 172 -81 168 -149 366 -149
437 0 72 34 143 84 177 73 50 109 64 171 66 33 1 79 8 102 16 41 13 44 12 71
-14 40 -38 59 -36 54 7 -5 43 19 54 55 26 36 -28 46 -25 74 17 24 37 32 41
129 63 30 7 91 27 135 45 44 17 134 42 200 54 66 13 154 31 195 41 102 23 113
23 144 -1z m710 -370 c49 -58 57 -93 59 -249 1 -124 -2 -150 -18 -180 -10 -19
-28 -74 -41 -123 -34 -135 -72 -176 -93 -99 -14 50 -14 62 3 68 8 3 18 19 21
34 4 16 25 57 47 92 55 84 64 153 25 192 -34 34 -59 33 -97 -5 -17 -17 -33
-30 -35 -28 -9 10 15 208 30 243 23 55 45 86 60 86 7 0 25 -14 39 -31z m-36
-310 c34 -46 33 -56 -16 -161 -17 -35 -33 -71 -36 -80 -3 -10 -9 -18 -14 -18
-26 0 -32 219 -7 240 8 7 15 18 15 24 0 10 19 36 26 36 1 0 16 -18 32 -41z
m-264 -71 c80 -151 88 -181 94 -343 7 -218 6 -244 -18 -350 -22 -101 -33 -131
-76 -217 -13 -25 -33 -77 -45 -115 -11 -37 -22 -73 -24 -79 -2 -6 12 -40 30
-75 48 -89 46 -126 -8 -214 -50 -82 -110 -124 -247 -173 -47 -16 -118 -42
-159 -56 -70 -26 -76 -26 -112 -12 -66 27 -298 196 -329 240 -16 23 -92 104
-169 181 -78 77 -141 143 -141 148 0 4 -20 32 -45 62 -76 94 -92 145 -46 145
11 0 46 10 78 22 69 25 165 116 201 189 25 52 29 128 10 190 -10 34 -9 42 8
60 17 19 88 59 105 59 4 0 28 -27 54 -59 34 -46 60 -67 108 -90 101 -50 148
-54 268 -25 126 30 157 49 219 131 57 76 69 127 51 215 -14 67 -4 98 50 164
19 23 42 56 51 73 9 17 22 31 27 31 5 0 34 -46 65 -102z m261 -465 c52 -242
42 -219 137 -300 31 -27 86 -64 122 -82 l66 -33 0 -152 c0 -107 -5 -168 -15
-202 -8 -27 -15 -78 -15 -113 0 -50 -7 -80 -30 -130 -16 -36 -51 -116 -78
-177 -27 -61 -63 -132 -81 -157 -17 -25 -31 -51 -31 -57 0 -19 -31 -73 -71
-124 -22 -27 -39 -57 -39 -68 0 -26 -112 -135 -180 -176 -98 -58 -115 -60
-201 -17 -154 78 -235 154 -350 326 -119 180 -145 246 -82 214 14 -8 56 -19
93 -26 89 -16 189 6 326 71 88 41 108 55 153 110 59 70 84 117 140 257 50 126
77 236 97 398 14 112 15 154 5 300 -14 213 -14 215 3 215 10 0 20 -25 31 -77z
m-1654 -396 c9 -7 28 -32 44 -57 15 -25 55 -76 89 -115 34 -38 75 -88 91 -110
90 -124 228 -263 374 -378 l105 -82 22 -90 c22 -90 34 -122 57 -160 7 -11 27
-47 46 -80 47 -82 118 -171 195 -242 66 -63 172 -133 199 -133 9 0 24 -12 32
-27 9 -16 13 -19 10 -8 -20 59 -16 67 26 45 25 -14 24 -36 -6 -85 -22 -34 -25
-52 -25 -127 0 -81 2 -88 20 -88 15 0 23 12 35 52 17 59 20 134 5 143 -5 3
-10 17 -10 31 0 17 8 28 28 35 191 76 263 135 354 289 15 25 47 71 71 104 102
134 236 442 237 541 0 22 10 74 22 115 19 62 22 100 23 223 0 168 -6 160 91
127 32 -12 95 -30 139 -41 44 -11 166 -49 270 -84 105 -34 219 -67 255 -74
262 -45 500 -188 676 -409 38 -47 90 -108 116 -134 82 -82 206 -296 231 -399
9 -36 28 -146 42 -245 14 -98 28 -188 32 -199 4 -11 7 -168 8 -350 1 -340 15
-575 42 -727 18 -103 13 -135 -23 -144 -34 -9 -40 2 -48 86 -8 93 -20 120 -49
120 -43 0 -61 -33 -67 -123 l-5 -81 -35 -7 c-19 -4 -93 -13 -163 -20 -145 -14
-168 -8 -129 34 14 15 27 48 34 85 10 52 9 64 -6 86 -15 24 -22 26 -91 26 -46
0 -77 -4 -81 -12 -4 -6 -11 -52 -15 -101 -5 -59 -12 -95 -22 -105 -11 -10 -48
-18 -115 -23 -54 -4 -114 -10 -134 -14 -22 -4 -38 -3 -42 4 -4 6 -9 95 -10
198 -4 181 -12 344 -22 390 -2 11 -32 54 -65 95 -34 40 -73 97 -86 126 -14 31
-29 52 -36 49 -17 -6 -9 -66 13 -102 51 -81 80 -158 80 -214 0 -47 -39 -331
-55 -397 -2 -11 -31 -42 -64 -69 -74 -59 -134 -133 -127 -158 6 -24 -29 -37
-99 -37 -57 0 -65 7 -65 60 0 33 -81 159 -138 213 l-40 39 -33 -17 c-19 -10
-50 -32 -70 -50 -20 -18 -58 -40 -85 -50 -125 -45 -150 -62 -180 -123 -16 -31
-30 -59 -31 -60 -1 -2 -32 3 -70 12 -55 12 -117 14 -313 11 -135 -2 -285 -1
-335 3 l-90 7 -23 70 c-12 39 -31 112 -42 163 -15 73 -31 114 -73 190 -30 53
-69 117 -86 142 -18 25 -48 70 -68 100 -47 72 -119 147 -164 170 -20 11 -65
29 -100 41 -35 11 -90 34 -121 50 -37 19 -117 42 -220 64 -188 41 -348 83
-364 96 -7 6 -8 29 -1 76 19 137 15 181 -23 258 -32 62 -44 75 -121 130 -47
33 -105 75 -129 93 -24 17 -51 32 -61 32 -11 0 -36 -15 -57 -34 -26 -24 -54
-37 -92 -45 -127 -25 -154 -32 -290 -66 -78 -20 -186 -54 -240 -76 -53 -21
-102 -39 -108 -39 -5 0 -32 -11 -59 -25 -67 -35 -184 -56 -345 -62 l-138 -5
-47 31 c-25 17 -52 31 -59 31 -6 0 -37 19 -67 43 -139 106 -213 155 -299 199
-50 26 -96 44 -100 42 -17 -11 -6 -22 40 -39 71 -27 218 -116 367 -224 22 -16
55 -36 73 -45 17 -9 32 -21 32 -27 0 -19 -33 -114 -48 -137 -39 -61 20 -237
99 -292 20 -15 29 -29 27 -43 -3 -21 -11 -27 -68 -52 -52 -22 -132 -89 -151
-127 -32 -60 -38 -78 -33 -91 3 -8 -5 -30 -16 -50 -15 -24 -23 -61 -27 -112
-6 -78 -13 -87 -49 -60 -10 8 -25 15 -32 15 -41 1 -410 393 -445 472 -9 22
-33 66 -53 98 -66 107 -89 269 -60 420 15 79 20 88 65 135 27 27 58 68 69 90
11 22 31 50 44 61 44 40 183 132 259 172 42 21 96 53 120 69 69 46 157 93 175
93 10 0 65 26 123 59 58 32 117 62 131 66 14 4 62 25 107 46 124 58 213 90
248 87 24 -1 46 9 96 47 75 58 142 125 166 166 10 16 20 29 24 29 3 0 33 22
67 49 102 82 368 221 423 221 10 0 19 4 19 9 0 14 89 61 115 61 43 0 291 89
376 135 88 47 147 57 180 32z m-538 -1517 c12 -33 32 -38 62 -16 11 8 26 11
35 8 22 -7 70 -54 70 -68 0 -7 -17 -46 -38 -87 -22 -42 -45 -103 -52 -136 -7
-34 -16 -61 -21 -61 -9 0 -37 40 -58 82 -18 35 -115 75 -217 89 -41 5 -94 17
-117 25 -23 8 -73 21 -112 29 -38 7 -88 20 -110 28 l-39 14 64 17 c214 56 432
105 473 105 45 1 50 -1 60 -29z m305 -437 c37 -13 47 -23 73 -74 60 -120 78
-199 88 -389 10 -202 7 -214 -50 -184 -19 9 -90 38 -159 64 -69 25 -154 65
-189 88 -101 68 -331 265 -331 284 0 4 33 24 73 44 39 20 108 59 153 86 85 52
245 111 279 102 11 -3 39 -12 63 -21z m-1485 -310 c18 -10 3 -25 -56 -51 -40
-19 -76 -45 -102 -74 -59 -67 -121 -192 -144 -287 -10 -46 -23 -87 -29 -93
-21 -21 -32 5 -32 75 1 123 17 201 59 285 65 127 124 167 236 155 33 -3 63 -8
68 -10z m873 -172 c49 -30 85 -70 110 -125 26 -56 29 -78 14 -107 -9 -16 -7
-19 12 -16 24 2 43 -26 54 -80 5 -24 2 -31 -21 -41 -47 -22 -55 -17 -55 39 0
31 -4 48 -10 44 -5 -3 -10 -26 -10 -50 0 -24 -4 -47 -10 -50 -5 -3 -43 25 -82
62 -40 38 -86 79 -103 91 -25 20 -29 30 -28 64 2 47 67 188 86 188 7 0 26 -9
43 -19z m4220 -273 l46 -13 -5 -69 c-7 -85 -17 -96 -77 -87 l-45 6 2 74 c3
111 2 109 79 89z m-4444 -98 c41 -12 55 -38 39 -69 -6 -11 -18 -53 -26 -93 -9
-40 -18 -81 -21 -90 -8 -25 -38 -31 -78 -14 l-36 15 0 74 c0 75 11 123 38 165
16 25 30 27 84 12z m3351 -52 c71 -62 116 -143 97 -178 -10 -18 -20 -20 -112
-20 -99 0 -100 0 -95 23 20 89 21 83 -17 125 -42 46 -45 65 -14 86 41 29 76
20 141 -36z m-3130 5 c43 -3 101 0 129 6 28 6 53 9 56 7 14 -15 -14 -83 -51
-123 -99 -107 -267 -176 -308 -127 -14 18 -15 99 -1 118 5 6 15 33 21 61 16
63 28 79 55 69 12 -4 56 -9 99 -11z m2962 -57 c30 -31 41 -70 26 -102 -18 -40
-49 -48 -158 -38 -89 8 -98 11 -101 30 -4 31 45 84 103 110 66 30 100 30 130
0z m1869 -51 c22 -22 45 -35 61 -35 62 0 124 -64 111 -116 -7 -28 -71 -74
-104 -74 -30 0 -78 25 -86 45 -10 27 -7 74 6 94 10 16 7 25 -16 55 -15 20 -38
39 -51 42 -32 8 -22 24 15 24 20 0 40 -11 64 -35z m-4994 -155 c41 -10 87 -21
103 -24 36 -9 36 -39 -3 -116 -22 -43 -37 -61 -56 -66 -24 -6 -114 1 -160 12
-19 5 -22 0 -28 -40 -9 -59 -40 -98 -75 -94 -24 3 -26 6 -23 47 6 69 17 91 49
91 23 0 25 2 11 13 -15 11 -15 19 0 97 10 47 21 90 25 97 8 13 46 9 157 -17z
m5031 -526 c58 -40 77 -115 38 -150 -25 -23 -83 -25 -152 -5 -37 11 -47 17
-42 30 10 23 13 42 14 73 1 34 47 78 80 78 14 0 42 -12 62 -26z m-521 -249
l105 -3 3 -49 c2 -30 -4 -69 -15 -98 l-18 -48 -145 0 -145 0 4 99 c2 54 6 103
8 107 3 5 26 6 52 2 25 -4 93 -8 151 -10z m363 -29 c60 -26 76 -53 80 -126 l2
-44 -53 -9 c-61 -10 -106 3 -123 36 -19 35 10 167 36 167 2 0 29 -11 58 -24z"/>
<path d="M3685 4114 c-19 -20 -20 -73 0 -80 28 -11 15 -25 -52 -55 -109 -48
-176 -84 -181 -97 -2 -6 38 10 90 36 187 95 206 102 314 104 87 2 106 -1 156
-22 61 -26 69 -36 41 -43 -14 -4 -13 -5 4 -6 18 -1 25 9 40 55 17 55 17 56 -2
70 -35 26 -94 37 -127 23 -36 -15 -166 -7 -225 15 -38 13 -44 13 -58 0z"/>
<path d="M3840 3957 c-30 -7 -90 -31 -132 -55 -67 -36 -85 -42 -137 -42 -33 0
-80 -8 -103 -17 -39 -16 -42 -16 -52 1 -27 44 -33 48 -55 41 -12 -3 -29 -17
-37 -30 -13 -20 -14 -28 -2 -51 7 -15 21 -32 31 -38 14 -9 21 -7 36 13 13 17
23 22 40 16 12 -4 27 -2 34 3 16 12 53 21 143 32 49 6 104 22 155 45 43 20
104 40 135 45 76 13 96 20 91 33 -5 16 -81 18 -147 4z"/>
<path d="M4018 3882 c-61 -54 -119 -95 -199 -140 -49 -28 -66 -32 -130 -32
-105 0 -188 16 -214 40 -23 22 -49 27 -43 8 14 -40 136 -77 267 -81 59 -2 72
2 113 28 26 17 73 46 105 67 57 36 175 133 181 149 10 24 -32 4 -80 -39z"/>
<path d="M2230 1151 c-5 -11 -10 -37 -10 -58 0 -21 -9 -78 -19 -128 -27 -128
-35 -224 -21 -259 16 -44 29 -21 39 74 6 47 19 128 29 180 11 52 23 121 27
153 6 53 5 57 -14 57 -11 0 -25 -9 -31 -19z"/>
<path d="M2181 1146 c-26 -31 -67 -202 -76 -309 -3 -49 -10 -99 -14 -110 -10
-29 -3 -57 14 -57 19 0 30 58 30 163 0 58 4 87 11 87 13 0 39 101 50 188 6 55
4 61 -15 38z"/>
<path d="M2321 1138 c-4 -13 -11 -57 -14 -99 -4 -42 -12 -89 -18 -105 -18 -47
-58 -288 -48 -298 16 -18 39 16 39 57 0 63 21 205 41 283 11 38 19 84 19 101
0 18 4 43 10 57 8 21 6 26 -5 26 -9 0 -19 -10 -24 -22z"/>
<path d="M5905 1013 c-104 -9 -276 -35 -327 -51 -50 -15 -59 -21 -69 -49 -6
-18 -9 -42 -7 -53 3 -18 12 -20 133 -24 105 -3 152 -9 248 -34 101 -27 124
-30 167 -22 28 5 59 14 70 20 27 15 50 62 50 105 0 34 -3 38 -52 60 -29 14
-60 25 -68 25 -8 0 -24 7 -34 15 -19 15 -28 15 -111 8z"/>
<path d="M1530 711 l-95 -6 -3 -32 c-2 -23 2 -33 15 -37 13 -4 485 -1 534 3 8
1 29 48 29 65 0 9 -44 12 -192 12 -106 1 -236 -2 -288 -5z"/>
<path d="M5841 699 c-19 -4 -50 -23 -69 -43 l-36 -35 21 -23 c11 -13 28 -37
37 -55 33 -65 107 -74 162 -19 29 29 33 40 32 80 0 33 -6 49 -18 56 -15 8 -17
4 -16 -33 2 -71 -60 -137 -102 -111 -19 12 -71 101 -72 122 0 20 90 54 128 48
17 -2 32 -1 32 4 0 11 -60 17 -99 9z"/>
<path d="M813 588 c-13 -17 -39 -99 -51 -162 -13 -66 -6 -216 10 -232 7 -7 33
-15 59 -19 42 -6 48 -4 96 33 l50 40 7 158 c4 90 12 165 19 172 8 11 2 13 -34
10 -35 -2 -45 -7 -47 -23 -5 -24 -41 -65 -58 -65 -16 0 -25 39 -13 62 17 32
-16 54 -38 26z"/>
</g>
</svg>
